<mxfile host="app.diagrams.net" modified="2022-05-02T21:49:23.613Z" agent="5.0 (Windows NT 10.0; Win64; x64) AppleWebKit/537.36 (KHTML, like Gecko) Chrome/100.0.4896.127 Safari/537.36" etag="-NGUp5YdKgEQkH4z01_b" version="17.5.0" type="github" pages="5">
  <diagram id="_Pe8OmCEXsDUAQ5Xi-Lf" name="Page-1">
    <mxGraphModel dx="1968" dy="1765" grid="1" gridSize="10" guides="1" tooltips="1" connect="1" arrows="1" fold="1" page="1" pageScale="1" pageWidth="827" pageHeight="1169" math="0" shadow="0">
      <root>
        <mxCell id="0" />
        <mxCell id="1" parent="0" />
        <mxCell id="NYbXmLxvF7OsIF8heGwU-1" value="Careworkers&lt;br&gt;Dashboard" style="rounded=1;whiteSpace=wrap;html=1;" parent="1" vertex="1">
          <mxGeometry x="340" y="80" width="120" height="60" as="geometry" />
        </mxCell>
        <mxCell id="NYbXmLxvF7OsIF8heGwU-2" value="Employees Dashboard" style="rounded=1;whiteSpace=wrap;html=1;" parent="1" vertex="1">
          <mxGeometry x="500" y="80" width="120" height="60" as="geometry" />
        </mxCell>
        <mxCell id="NYbXmLxvF7OsIF8heGwU-3" value="Reports Dashboard" style="rounded=1;whiteSpace=wrap;html=1;" parent="1" vertex="1">
          <mxGeometry x="170" y="90" width="120" height="60" as="geometry" />
        </mxCell>
        <mxCell id="NYbXmLxvF7OsIF8heGwU-4" value="Jobs Dashboard" style="rounded=1;whiteSpace=wrap;html=1;" parent="1" vertex="1">
          <mxGeometry x="660" y="80" width="120" height="60" as="geometry" />
        </mxCell>
        <mxCell id="NYbXmLxvF7OsIF8heGwU-5" value="Clients Dashboard" style="rounded=1;whiteSpace=wrap;html=1;" parent="1" vertex="1">
          <mxGeometry x="10" y="90" width="120" height="60" as="geometry" />
        </mxCell>
        <mxCell id="nG1q9P_kW8u8GUGwyGF0-1" value="Healthcare Worker / Shift Management" style="rounded=1;whiteSpace=wrap;html=1;" parent="1" vertex="1">
          <mxGeometry x="827" y="80" width="120" height="60" as="geometry" />
        </mxCell>
        <mxCell id="nG1q9P_kW8u8GUGwyGF0-3" style="edgeStyle=none;rounded=0;orthogonalLoop=1;jettySize=auto;html=1;exitX=0.5;exitY=1;exitDx=0;exitDy=0;entryX=0.5;entryY=0;entryDx=0;entryDy=0;" parent="1" source="nG1q9P_kW8u8GUGwyGF0-2" target="NYbXmLxvF7OsIF8heGwU-1" edge="1">
          <mxGeometry relative="1" as="geometry" />
        </mxCell>
        <mxCell id="nG1q9P_kW8u8GUGwyGF0-4" style="edgeStyle=none;rounded=0;orthogonalLoop=1;jettySize=auto;html=1;exitX=0.5;exitY=1;exitDx=0;exitDy=0;entryX=0.5;entryY=0;entryDx=0;entryDy=0;" parent="1" source="nG1q9P_kW8u8GUGwyGF0-2" target="NYbXmLxvF7OsIF8heGwU-2" edge="1">
          <mxGeometry relative="1" as="geometry" />
        </mxCell>
        <mxCell id="nG1q9P_kW8u8GUGwyGF0-2" value="Main Dashboard" style="rounded=1;whiteSpace=wrap;html=1;" parent="1" vertex="1">
          <mxGeometry x="414" y="-50" width="120" height="60" as="geometry" />
        </mxCell>
        <mxCell id="9xf2Hl8lTu5Nhggj2_ux-1" value="Training and Qualifications" style="rounded=1;whiteSpace=wrap;html=1;" parent="1" vertex="1">
          <mxGeometry x="-150" y="90" width="120" height="60" as="geometry" />
        </mxCell>
      </root>
    </mxGraphModel>
  </diagram>
  <diagram id="E-5yc8hLpdACO0bB-CLJ" name="Page-2">
    <mxGraphModel dx="4087" dy="1703" grid="1" gridSize="10" guides="1" tooltips="1" connect="1" arrows="1" fold="1" page="1" pageScale="1" pageWidth="827" pageHeight="1169" math="0" shadow="0">
      <root>
        <mxCell id="0" />
        <mxCell id="1" parent="0" />
        <mxCell id="qa1zQpQnQG7U2qvUqZvl-37" style="edgeStyle=none;rounded=0;orthogonalLoop=1;jettySize=auto;html=1;exitX=0.5;exitY=1;exitDx=0;exitDy=0;entryX=0.5;entryY=0;entryDx=0;entryDy=0;fontSize=14;" parent="1" source="qa1zQpQnQG7U2qvUqZvl-2" target="qa1zQpQnQG7U2qvUqZvl-9" edge="1">
          <mxGeometry relative="1" as="geometry" />
        </mxCell>
        <mxCell id="qa1zQpQnQG7U2qvUqZvl-38" style="edgeStyle=none;rounded=0;orthogonalLoop=1;jettySize=auto;html=1;exitX=0.5;exitY=1;exitDx=0;exitDy=0;entryX=0.5;entryY=0;entryDx=0;entryDy=0;fontSize=14;" parent="1" source="qa1zQpQnQG7U2qvUqZvl-2" target="qa1zQpQnQG7U2qvUqZvl-4" edge="1">
          <mxGeometry relative="1" as="geometry" />
        </mxCell>
        <mxCell id="qa1zQpQnQG7U2qvUqZvl-40" style="edgeStyle=none;rounded=0;orthogonalLoop=1;jettySize=auto;html=1;exitX=0.5;exitY=1;exitDx=0;exitDy=0;entryX=0;entryY=0.5;entryDx=0;entryDy=0;fontSize=14;" parent="1" source="qa1zQpQnQG7U2qvUqZvl-2" target="qa1zQpQnQG7U2qvUqZvl-3" edge="1">
          <mxGeometry relative="1" as="geometry" />
        </mxCell>
        <mxCell id="qa1zQpQnQG7U2qvUqZvl-2" value="Careworkers&lt;br style=&quot;font-size: 14px;&quot;&gt;Dashboard" style="rounded=1;whiteSpace=wrap;html=1;fillColor=#d5e8d4;strokeColor=#82b366;fontSize=14;" parent="1" vertex="1">
          <mxGeometry x="253" y="60" width="120" height="60" as="geometry" />
        </mxCell>
        <mxCell id="qa1zQpQnQG7U2qvUqZvl-41" style="edgeStyle=none;rounded=0;orthogonalLoop=1;jettySize=auto;html=1;exitX=0.5;exitY=1;exitDx=0;exitDy=0;entryX=0.5;entryY=0;entryDx=0;entryDy=0;fontSize=14;" parent="1" source="qa1zQpQnQG7U2qvUqZvl-3" target="qa1zQpQnQG7U2qvUqZvl-5" edge="1">
          <mxGeometry relative="1" as="geometry" />
        </mxCell>
        <mxCell id="vJyn31CDTOA829Gxq4Km-24" style="edgeStyle=none;rounded=0;orthogonalLoop=1;jettySize=auto;html=1;exitX=0.5;exitY=1;exitDx=0;exitDy=0;entryX=0.5;entryY=0;entryDx=0;entryDy=0;fontSize=14;" parent="1" source="qa1zQpQnQG7U2qvUqZvl-3" target="qa1zQpQnQG7U2qvUqZvl-6" edge="1">
          <mxGeometry relative="1" as="geometry" />
        </mxCell>
        <mxCell id="qa1zQpQnQG7U2qvUqZvl-3" value="List of Careworkers&lt;br style=&quot;font-size: 14px;&quot;&gt;(CRUD TABLE)" style="rounded=1;whiteSpace=wrap;html=1;fillColor=#dae8fc;strokeColor=#6c8ebf;fontSize=14;" parent="1" vertex="1">
          <mxGeometry x="880" y="180" width="120" height="60" as="geometry" />
        </mxCell>
        <mxCell id="qa1zQpQnQG7U2qvUqZvl-4" value="Onboard Careworker&lt;br style=&quot;font-size: 14px;&quot;&gt;(Add New)" style="rounded=1;whiteSpace=wrap;html=1;fillColor=#dae8fc;strokeColor=#6c8ebf;fontSize=14;" parent="1" vertex="1">
          <mxGeometry x="-160" y="180" width="120" height="60" as="geometry" />
        </mxCell>
        <mxCell id="qa1zQpQnQG7U2qvUqZvl-5" value="Update Careworker" style="rounded=1;whiteSpace=wrap;html=1;fillColor=#fff2cc;strokeColor=#d6b656;fontSize=14;" parent="1" vertex="1">
          <mxGeometry x="810" y="280" width="120" height="60" as="geometry" />
        </mxCell>
        <mxCell id="qa1zQpQnQG7U2qvUqZvl-6" value="Delete Careworker" style="rounded=1;whiteSpace=wrap;html=1;fillColor=#fff2cc;strokeColor=#d6b656;fontSize=14;" parent="1" vertex="1">
          <mxGeometry x="960" y="280" width="120" height="60" as="geometry" />
        </mxCell>
        <mxCell id="vJyn31CDTOA829Gxq4Km-14" style="edgeStyle=none;rounded=0;orthogonalLoop=1;jettySize=auto;html=1;exitX=0.5;exitY=1;exitDx=0;exitDy=0;entryX=0.5;entryY=0;entryDx=0;entryDy=0;fillColor=#dae8fc;strokeColor=#000000;fontSize=14;" parent="1" source="qa1zQpQnQG7U2qvUqZvl-7" target="vJyn31CDTOA829Gxq4Km-13" edge="1">
          <mxGeometry relative="1" as="geometry" />
        </mxCell>
        <mxCell id="vJyn31CDTOA829Gxq4Km-17" style="edgeStyle=none;rounded=0;orthogonalLoop=1;jettySize=auto;html=1;exitX=0.5;exitY=1;exitDx=0;exitDy=0;entryX=0.5;entryY=0;entryDx=0;entryDy=0;fillColor=#dae8fc;strokeColor=#000000;fontSize=14;" parent="1" source="qa1zQpQnQG7U2qvUqZvl-7" target="vJyn31CDTOA829Gxq4Km-15" edge="1">
          <mxGeometry relative="1" as="geometry" />
        </mxCell>
        <mxCell id="qa1zQpQnQG7U2qvUqZvl-7" value="&lt;span&gt;Payments Tab&lt;/span&gt;" style="rounded=1;whiteSpace=wrap;html=1;fillColor=#d5e8d4;strokeColor=#000000;fontSize=14;" parent="1" vertex="1">
          <mxGeometry x="940" y="680" width="120" height="60" as="geometry" />
        </mxCell>
        <mxCell id="qa1zQpQnQG7U2qvUqZvl-14" style="rounded=0;orthogonalLoop=1;jettySize=auto;html=1;exitX=0.5;exitY=1;exitDx=0;exitDy=0;fontSize=14;" parent="1" source="qa1zQpQnQG7U2qvUqZvl-9" target="qa1zQpQnQG7U2qvUqZvl-12" edge="1">
          <mxGeometry relative="1" as="geometry" />
        </mxCell>
        <mxCell id="qa1zQpQnQG7U2qvUqZvl-15" style="rounded=0;orthogonalLoop=1;jettySize=auto;html=1;exitX=0.5;exitY=1;exitDx=0;exitDy=0;entryX=0.5;entryY=0;entryDx=0;entryDy=0;fontSize=14;" parent="1" source="qa1zQpQnQG7U2qvUqZvl-9" target="vJyn31CDTOA829Gxq4Km-16" edge="1">
          <mxGeometry relative="1" as="geometry">
            <mxPoint x="1420" y="720" as="targetPoint" />
          </mxGeometry>
        </mxCell>
        <mxCell id="qa1zQpQnQG7U2qvUqZvl-16" style="rounded=0;orthogonalLoop=1;jettySize=auto;html=1;exitX=0.5;exitY=1;exitDx=0;exitDy=0;entryX=0.5;entryY=0;entryDx=0;entryDy=0;fontSize=14;" parent="1" source="qa1zQpQnQG7U2qvUqZvl-9" target="qa1zQpQnQG7U2qvUqZvl-7" edge="1">
          <mxGeometry relative="1" as="geometry" />
        </mxCell>
        <mxCell id="qa1zQpQnQG7U2qvUqZvl-17" style="rounded=0;orthogonalLoop=1;jettySize=auto;html=1;exitX=0.5;exitY=1;exitDx=0;exitDy=0;entryX=0.5;entryY=0;entryDx=0;entryDy=0;fontSize=14;" parent="1" source="qa1zQpQnQG7U2qvUqZvl-9" target="qa1zQpQnQG7U2qvUqZvl-13" edge="1">
          <mxGeometry relative="1" as="geometry">
            <mxPoint x="98" y="470" as="targetPoint" />
          </mxGeometry>
        </mxCell>
        <mxCell id="qa1zQpQnQG7U2qvUqZvl-9" value="View Careworker Profile" style="rounded=1;whiteSpace=wrap;html=1;fillColor=#dae8fc;strokeColor=#6c8ebf;fontSize=14;" parent="1" vertex="1">
          <mxGeometry x="250" y="250" width="120" height="60" as="geometry" />
        </mxCell>
        <mxCell id="qa1zQpQnQG7U2qvUqZvl-22" style="edgeStyle=none;rounded=0;orthogonalLoop=1;jettySize=auto;html=1;exitX=0.5;exitY=1;exitDx=0;exitDy=0;entryX=0.5;entryY=0;entryDx=0;entryDy=0;fontSize=14;" parent="1" source="qa1zQpQnQG7U2qvUqZvl-12" target="qa1zQpQnQG7U2qvUqZvl-20" edge="1">
          <mxGeometry relative="1" as="geometry" />
        </mxCell>
        <mxCell id="qa1zQpQnQG7U2qvUqZvl-23" style="edgeStyle=none;rounded=0;orthogonalLoop=1;jettySize=auto;html=1;exitX=0.5;exitY=1;exitDx=0;exitDy=0;entryX=0.5;entryY=0;entryDx=0;entryDy=0;fontSize=14;" parent="1" source="qa1zQpQnQG7U2qvUqZvl-12" target="qa1zQpQnQG7U2qvUqZvl-19" edge="1">
          <mxGeometry relative="1" as="geometry" />
        </mxCell>
        <mxCell id="qa1zQpQnQG7U2qvUqZvl-24" style="edgeStyle=none;rounded=0;orthogonalLoop=1;jettySize=auto;html=1;exitX=0.5;exitY=1;exitDx=0;exitDy=0;entryX=0.5;entryY=0;entryDx=0;entryDy=0;fontSize=14;" parent="1" source="qa1zQpQnQG7U2qvUqZvl-12" target="qa1zQpQnQG7U2qvUqZvl-21" edge="1">
          <mxGeometry relative="1" as="geometry" />
        </mxCell>
        <mxCell id="qa1zQpQnQG7U2qvUqZvl-12" value="Training Tab" style="rounded=1;whiteSpace=wrap;html=1;fillColor=#d5e8d4;strokeColor=#82b366;fontSize=14;" parent="1" vertex="1">
          <mxGeometry x="-537" y="330" width="120" height="60" as="geometry" />
        </mxCell>
        <mxCell id="qa1zQpQnQG7U2qvUqZvl-13" value="Qualifications Tab" style="rounded=1;whiteSpace=wrap;html=1;fillColor=#d5e8d4;strokeColor=#000000;fontSize=14;" parent="1" vertex="1">
          <mxGeometry x="250" y="520" width="120" height="60" as="geometry" />
        </mxCell>
        <mxCell id="qa1zQpQnQG7U2qvUqZvl-19" value="Add Training" style="rounded=1;whiteSpace=wrap;html=1;fillColor=#dae8fc;strokeColor=#000000;fontSize=14;" parent="1" vertex="1">
          <mxGeometry x="-760" y="460" width="120" height="60" as="geometry" />
        </mxCell>
        <mxCell id="qa1zQpQnQG7U2qvUqZvl-35" style="edgeStyle=none;rounded=0;orthogonalLoop=1;jettySize=auto;html=1;exitX=0.5;exitY=1;exitDx=0;exitDy=0;entryX=0.5;entryY=0;entryDx=0;entryDy=0;fillColor=#dae8fc;strokeColor=#000000;fontSize=14;" parent="1" source="qa1zQpQnQG7U2qvUqZvl-20" target="qa1zQpQnQG7U2qvUqZvl-30" edge="1">
          <mxGeometry relative="1" as="geometry" />
        </mxCell>
        <mxCell id="qa1zQpQnQG7U2qvUqZvl-36" style="edgeStyle=none;rounded=0;orthogonalLoop=1;jettySize=auto;html=1;exitX=0.5;exitY=1;exitDx=0;exitDy=0;entryX=0.5;entryY=0;entryDx=0;entryDy=0;fillColor=#dae8fc;strokeColor=#000000;fontSize=14;" parent="1" source="qa1zQpQnQG7U2qvUqZvl-20" target="qa1zQpQnQG7U2qvUqZvl-32" edge="1">
          <mxGeometry relative="1" as="geometry" />
        </mxCell>
        <mxCell id="qa1zQpQnQG7U2qvUqZvl-20" value="View Training&lt;br style=&quot;font-size: 14px;&quot;&gt;CRUD TABLE" style="rounded=1;whiteSpace=wrap;html=1;fillColor=#dae8fc;strokeColor=#000000;fontSize=14;" parent="1" vertex="1">
          <mxGeometry x="-537" y="460" width="120" height="60" as="geometry" />
        </mxCell>
        <mxCell id="qa1zQpQnQG7U2qvUqZvl-28" style="edgeStyle=none;rounded=0;orthogonalLoop=1;jettySize=auto;html=1;exitX=0.5;exitY=1;exitDx=0;exitDy=0;entryX=0.5;entryY=0;entryDx=0;entryDy=0;fillColor=#fff2cc;strokeColor=#000000;fontSize=14;" parent="1" source="qa1zQpQnQG7U2qvUqZvl-21" target="qa1zQpQnQG7U2qvUqZvl-25" edge="1">
          <mxGeometry relative="1" as="geometry" />
        </mxCell>
        <mxCell id="qa1zQpQnQG7U2qvUqZvl-29" style="edgeStyle=none;rounded=0;orthogonalLoop=1;jettySize=auto;html=1;exitX=0.5;exitY=1;exitDx=0;exitDy=0;entryX=0.5;entryY=0;entryDx=0;entryDy=0;fillColor=#fff2cc;strokeColor=#000000;fontSize=14;" parent="1" source="qa1zQpQnQG7U2qvUqZvl-21" target="qa1zQpQnQG7U2qvUqZvl-27" edge="1">
          <mxGeometry relative="1" as="geometry" />
        </mxCell>
        <mxCell id="qa1zQpQnQG7U2qvUqZvl-21" value="Verify Training" style="rounded=1;whiteSpace=wrap;html=1;fillColor=#dae8fc;strokeColor=#000000;fontSize=14;" parent="1" vertex="1">
          <mxGeometry x="-292" y="500" width="120" height="60" as="geometry" />
        </mxCell>
        <mxCell id="qa1zQpQnQG7U2qvUqZvl-25" value="Upload/Download Document" style="rounded=1;whiteSpace=wrap;html=1;fillColor=#fff2cc;strokeColor=#000000;fontSize=14;" parent="1" vertex="1">
          <mxGeometry x="-352" y="650" width="120" height="60" as="geometry" />
        </mxCell>
        <mxCell id="qa1zQpQnQG7U2qvUqZvl-26" style="edgeStyle=none;rounded=0;orthogonalLoop=1;jettySize=auto;html=1;exitX=1;exitY=0.5;exitDx=0;exitDy=0;fillColor=#fff2cc;strokeColor=#000000;fontSize=14;" parent="1" source="qa1zQpQnQG7U2qvUqZvl-25" target="qa1zQpQnQG7U2qvUqZvl-25" edge="1">
          <mxGeometry relative="1" as="geometry" />
        </mxCell>
        <mxCell id="qa1zQpQnQG7U2qvUqZvl-27" value="Pdf Viewer&amp;nbsp;" style="rounded=1;whiteSpace=wrap;html=1;fillColor=#fff2cc;strokeColor=#000000;fontSize=14;" parent="1" vertex="1">
          <mxGeometry x="-222" y="650" width="120" height="60" as="geometry" />
        </mxCell>
        <mxCell id="qa1zQpQnQG7U2qvUqZvl-30" value="Update Training" style="rounded=1;whiteSpace=wrap;html=1;fillColor=#fff2cc;strokeColor=#000000;fontSize=14;" parent="1" vertex="1">
          <mxGeometry x="-602" y="570" width="120" height="60" as="geometry" />
        </mxCell>
        <mxCell id="qa1zQpQnQG7U2qvUqZvl-31" style="edgeStyle=none;rounded=0;orthogonalLoop=1;jettySize=auto;html=1;exitX=1;exitY=0.5;exitDx=0;exitDy=0;fillColor=#fff2cc;strokeColor=#000000;fontSize=14;" parent="1" source="qa1zQpQnQG7U2qvUqZvl-30" target="qa1zQpQnQG7U2qvUqZvl-30" edge="1">
          <mxGeometry relative="1" as="geometry" />
        </mxCell>
        <mxCell id="qa1zQpQnQG7U2qvUqZvl-32" value="Delete Record" style="rounded=1;whiteSpace=wrap;html=1;fillColor=#fff2cc;strokeColor=#000000;fontSize=14;" parent="1" vertex="1">
          <mxGeometry x="-360" y="570" width="120" height="60" as="geometry" />
        </mxCell>
        <mxCell id="nf25y3Vq956XLM-RpLTz-1" style="edgeStyle=none;rounded=0;orthogonalLoop=1;jettySize=auto;html=1;exitX=0.5;exitY=1;exitDx=0;exitDy=0;entryX=0.5;entryY=0;entryDx=0;entryDy=0;fontSize=14;strokeColor=#000000;" parent="1" target="nf25y3Vq956XLM-RpLTz-7" edge="1">
          <mxGeometry relative="1" as="geometry">
            <mxPoint x="313" y="580" as="sourcePoint" />
          </mxGeometry>
        </mxCell>
        <mxCell id="nf25y3Vq956XLM-RpLTz-2" style="edgeStyle=none;rounded=0;orthogonalLoop=1;jettySize=auto;html=1;exitX=0.5;exitY=1;exitDx=0;exitDy=0;entryX=0.5;entryY=0;entryDx=0;entryDy=0;fontSize=14;strokeColor=#000000;" parent="1" target="nf25y3Vq956XLM-RpLTz-4" edge="1">
          <mxGeometry relative="1" as="geometry">
            <mxPoint x="313" y="580" as="sourcePoint" />
          </mxGeometry>
        </mxCell>
        <mxCell id="nf25y3Vq956XLM-RpLTz-3" style="edgeStyle=none;rounded=0;orthogonalLoop=1;jettySize=auto;html=1;exitX=0.5;exitY=1;exitDx=0;exitDy=0;entryX=0.5;entryY=0;entryDx=0;entryDy=0;fontSize=14;strokeColor=#000000;" parent="1" target="nf25y3Vq956XLM-RpLTz-10" edge="1">
          <mxGeometry relative="1" as="geometry">
            <mxPoint x="313" y="580" as="sourcePoint" />
          </mxGeometry>
        </mxCell>
        <mxCell id="nf25y3Vq956XLM-RpLTz-4" value="Add Training" style="rounded=1;whiteSpace=wrap;html=1;fillColor=#dae8fc;strokeColor=#000000;fontSize=14;" parent="1" vertex="1">
          <mxGeometry x="30" y="650" width="120" height="60" as="geometry" />
        </mxCell>
        <mxCell id="nf25y3Vq956XLM-RpLTz-5" style="edgeStyle=none;rounded=0;orthogonalLoop=1;jettySize=auto;html=1;exitX=0.5;exitY=1;exitDx=0;exitDy=0;entryX=0.5;entryY=0;entryDx=0;entryDy=0;fillColor=#dae8fc;strokeColor=#000000;fontSize=14;" parent="1" source="nf25y3Vq956XLM-RpLTz-7" target="nf25y3Vq956XLM-RpLTz-14" edge="1">
          <mxGeometry relative="1" as="geometry" />
        </mxCell>
        <mxCell id="nf25y3Vq956XLM-RpLTz-6" style="edgeStyle=none;rounded=0;orthogonalLoop=1;jettySize=auto;html=1;exitX=0.5;exitY=1;exitDx=0;exitDy=0;entryX=0.5;entryY=0;entryDx=0;entryDy=0;fillColor=#dae8fc;strokeColor=#000000;fontSize=14;" parent="1" source="nf25y3Vq956XLM-RpLTz-7" target="nf25y3Vq956XLM-RpLTz-16" edge="1">
          <mxGeometry relative="1" as="geometry" />
        </mxCell>
        <mxCell id="nf25y3Vq956XLM-RpLTz-7" value="View Training&lt;br style=&quot;font-size: 14px;&quot;&gt;CRUD TABLE" style="rounded=1;whiteSpace=wrap;html=1;fillColor=#dae8fc;strokeColor=#000000;fontSize=14;" parent="1" vertex="1">
          <mxGeometry x="253" y="650" width="120" height="60" as="geometry" />
        </mxCell>
        <mxCell id="nf25y3Vq956XLM-RpLTz-8" style="edgeStyle=none;rounded=0;orthogonalLoop=1;jettySize=auto;html=1;exitX=0.5;exitY=1;exitDx=0;exitDy=0;fillColor=#fff2cc;strokeColor=#000000;fontSize=14;entryX=0.5;entryY=0;entryDx=0;entryDy=0;" parent="1" source="nf25y3Vq956XLM-RpLTz-10" target="nf25y3Vq956XLM-RpLTz-11" edge="1">
          <mxGeometry relative="1" as="geometry">
            <mxPoint x="510" y="830" as="targetPoint" />
          </mxGeometry>
        </mxCell>
        <mxCell id="nf25y3Vq956XLM-RpLTz-9" style="edgeStyle=none;rounded=0;orthogonalLoop=1;jettySize=auto;html=1;exitX=0.5;exitY=1;exitDx=0;exitDy=0;entryX=0.5;entryY=0;entryDx=0;entryDy=0;fillColor=#fff2cc;strokeColor=#000000;fontSize=14;" parent="1" source="nf25y3Vq956XLM-RpLTz-10" target="nf25y3Vq956XLM-RpLTz-13" edge="1">
          <mxGeometry relative="1" as="geometry" />
        </mxCell>
        <mxCell id="nf25y3Vq956XLM-RpLTz-10" value="Verify Training" style="rounded=1;whiteSpace=wrap;html=1;fillColor=#dae8fc;strokeColor=#000000;fontSize=14;" parent="1" vertex="1">
          <mxGeometry x="498" y="690" width="120" height="60" as="geometry" />
        </mxCell>
        <mxCell id="nf25y3Vq956XLM-RpLTz-11" value="Upload/Download Document" style="rounded=1;whiteSpace=wrap;html=1;fillColor=#fff2cc;strokeColor=#000000;fontSize=14;" parent="1" vertex="1">
          <mxGeometry x="438" y="840" width="120" height="60" as="geometry" />
        </mxCell>
        <mxCell id="nf25y3Vq956XLM-RpLTz-12" style="edgeStyle=none;rounded=0;orthogonalLoop=1;jettySize=auto;html=1;exitX=1;exitY=0.5;exitDx=0;exitDy=0;fillColor=#fff2cc;strokeColor=#000000;fontSize=14;" parent="1" source="nf25y3Vq956XLM-RpLTz-11" target="nf25y3Vq956XLM-RpLTz-11" edge="1">
          <mxGeometry relative="1" as="geometry" />
        </mxCell>
        <mxCell id="nf25y3Vq956XLM-RpLTz-13" value="Pdf Viewer&amp;nbsp;" style="rounded=1;whiteSpace=wrap;html=1;fillColor=#fff2cc;strokeColor=#000000;fontSize=14;" parent="1" vertex="1">
          <mxGeometry x="568" y="840" width="120" height="60" as="geometry" />
        </mxCell>
        <mxCell id="nf25y3Vq956XLM-RpLTz-14" value="Update Training" style="rounded=1;whiteSpace=wrap;html=1;fillColor=#fff2cc;strokeColor=#000000;fontSize=14;" parent="1" vertex="1">
          <mxGeometry x="188" y="760" width="120" height="60" as="geometry" />
        </mxCell>
        <mxCell id="nf25y3Vq956XLM-RpLTz-15" style="edgeStyle=none;rounded=0;orthogonalLoop=1;jettySize=auto;html=1;exitX=1;exitY=0.5;exitDx=0;exitDy=0;fillColor=#fff2cc;strokeColor=#000000;fontSize=14;" parent="1" source="nf25y3Vq956XLM-RpLTz-14" target="nf25y3Vq956XLM-RpLTz-14" edge="1">
          <mxGeometry relative="1" as="geometry" />
        </mxCell>
        <mxCell id="nf25y3Vq956XLM-RpLTz-16" value="Delete Record" style="rounded=1;whiteSpace=wrap;html=1;fillColor=#fff2cc;strokeColor=#000000;fontSize=14;" parent="1" vertex="1">
          <mxGeometry x="318" y="760" width="120" height="60" as="geometry" />
        </mxCell>
        <mxCell id="vJyn31CDTOA829Gxq4Km-13" value="View Payments" style="rounded=1;whiteSpace=wrap;html=1;fillColor=#dae8fc;strokeColor=#000000;fontSize=14;" parent="1" vertex="1">
          <mxGeometry x="1020" y="790" width="120" height="60" as="geometry" />
        </mxCell>
        <mxCell id="vJyn31CDTOA829Gxq4Km-15" value="Update Training" style="rounded=1;whiteSpace=wrap;html=1;fillColor=#dae8fc;strokeColor=#000000;fontSize=14;" parent="1" vertex="1">
          <mxGeometry x="870" y="790" width="120" height="60" as="geometry" />
        </mxCell>
        <mxCell id="vJyn31CDTOA829Gxq4Km-20" style="edgeStyle=none;rounded=0;orthogonalLoop=1;jettySize=auto;html=1;exitX=0.5;exitY=1;exitDx=0;exitDy=0;entryX=0.5;entryY=0;entryDx=0;entryDy=0;fontSize=14;strokeColor=#000000;" parent="1" source="vJyn31CDTOA829Gxq4Km-16" target="vJyn31CDTOA829Gxq4Km-19" edge="1">
          <mxGeometry relative="1" as="geometry" />
        </mxCell>
        <mxCell id="vJyn31CDTOA829Gxq4Km-21" style="edgeStyle=none;rounded=0;orthogonalLoop=1;jettySize=auto;html=1;exitX=0.5;exitY=1;exitDx=0;exitDy=0;entryX=0.5;entryY=0;entryDx=0;entryDy=0;fontSize=14;strokeColor=#000000;" parent="1" source="vJyn31CDTOA829Gxq4Km-16" target="vJyn31CDTOA829Gxq4Km-18" edge="1">
          <mxGeometry relative="1" as="geometry" />
        </mxCell>
        <mxCell id="vJyn31CDTOA829Gxq4Km-30" style="edgeStyle=none;rounded=0;orthogonalLoop=1;jettySize=auto;html=1;exitX=0.5;exitY=1;exitDx=0;exitDy=0;fontSize=18;entryX=0.5;entryY=0;entryDx=0;entryDy=0;" parent="1" source="vJyn31CDTOA829Gxq4Km-16" target="vJyn31CDTOA829Gxq4Km-29" edge="1">
          <mxGeometry relative="1" as="geometry">
            <mxPoint x="1330" y="440" as="targetPoint" />
          </mxGeometry>
        </mxCell>
        <mxCell id="vJyn31CDTOA829Gxq4Km-16" value="Shift history&lt;br&gt;CRUD TABLE" style="rounded=1;whiteSpace=wrap;html=1;fillColor=#d5e8d4;strokeColor=#82b366;fontSize=14;" parent="1" vertex="1">
          <mxGeometry x="1230" y="390" width="120" height="60" as="geometry" />
        </mxCell>
        <mxCell id="vJyn31CDTOA829Gxq4Km-18" value="View Shifts" style="rounded=1;whiteSpace=wrap;html=1;fillColor=#dae8fc;strokeColor=#000000;fontSize=14;" parent="1" vertex="1">
          <mxGeometry x="1230" y="515" width="120" height="60" as="geometry" />
        </mxCell>
        <mxCell id="vJyn31CDTOA829Gxq4Km-19" value="Update Shift Details" style="rounded=1;whiteSpace=wrap;html=1;fillColor=#dae8fc;strokeColor=#000000;fontSize=14;" parent="1" vertex="1">
          <mxGeometry x="1080" y="515" width="120" height="60" as="geometry" />
        </mxCell>
        <mxCell id="vJyn31CDTOA829Gxq4Km-29" value="Delete Shift Details" style="rounded=1;whiteSpace=wrap;html=1;fillColor=#dae8fc;strokeColor=#6c8ebf;fontSize=14;" parent="1" vertex="1">
          <mxGeometry x="1400" y="520" width="120" height="60" as="geometry" />
        </mxCell>
      </root>
    </mxGraphModel>
  </diagram>
  <diagram id="MHMON4BeY3YOfQfAwjbu" name="Page-3">
    <mxGraphModel dx="2902" dy="1084" grid="1" gridSize="10" guides="1" tooltips="1" connect="1" arrows="1" fold="1" page="1" pageScale="1" pageWidth="827" pageHeight="1169" math="0" shadow="0">
      <root>
        <mxCell id="0" />
        <mxCell id="1" parent="0" />
        <mxCell id="KQTo3xIrxq6SOfCbV4OU-3" value="" style="whiteSpace=wrap;html=1;fontSize=18;strokeColor=#000000;fillColor=none;" parent="1" vertex="1">
          <mxGeometry x="50" y="40" width="910" height="700" as="geometry" />
        </mxCell>
        <mxCell id="Y9Y1MS8vBDtuP1-jkNfX-2" value="Dash Message" style="rounded=1;whiteSpace=wrap;html=1;fontSize=18;strokeColor=#000000;" parent="1" vertex="1">
          <mxGeometry x="80" y="120" width="220" height="90" as="geometry" />
        </mxCell>
        <mxCell id="Y9Y1MS8vBDtuP1-jkNfX-3" value="Pie Chart&lt;br&gt;Active Workers: 60%&lt;br&gt;Inactive Workers: 40%&lt;br&gt;" style="rounded=1;whiteSpace=wrap;html=1;fontSize=18;strokeColor=#000000;" parent="1" vertex="1">
          <mxGeometry x="570" y="235" width="360" height="310" as="geometry" />
        </mxCell>
        <mxCell id="Y9Y1MS8vBDtuP1-jkNfX-5" value="54 Workers Booked Shifts" style="rounded=1;whiteSpace=wrap;html=1;fontSize=18;strokeColor=#000000;" parent="1" vertex="1">
          <mxGeometry x="510" y="120" width="170" height="90" as="geometry" />
        </mxCell>
        <mxCell id="Y9Y1MS8vBDtuP1-jkNfX-6" value="34 Inactive Workers" style="rounded=1;whiteSpace=wrap;html=1;fontSize=18;strokeColor=#000000;" parent="1" vertex="1">
          <mxGeometry x="700" y="120" width="220" height="90" as="geometry" />
        </mxCell>
        <mxCell id="Y9Y1MS8vBDtuP1-jkNfX-8" value="Onboard&amp;nbsp;&lt;br&gt;Heathcare Worker" style="rounded=1;whiteSpace=wrap;html=1;fontSize=18;strokeColor=#000000;" parent="1" vertex="1">
          <mxGeometry x="320" y="120" width="170" height="90" as="geometry" />
        </mxCell>
        <mxCell id="Y9Y1MS8vBDtuP1-jkNfX-9" value="Most Requested Healthcare Workers" style="rounded=1;whiteSpace=wrap;html=1;fontSize=18;strokeColor=#000000;" parent="1" vertex="1">
          <mxGeometry x="80" y="240" width="210" height="310" as="geometry" />
        </mxCell>
        <mxCell id="Y9Y1MS8vBDtuP1-jkNfX-10" value="Most Requested&lt;br&gt;Healthcare Training" style="rounded=1;whiteSpace=wrap;html=1;fontSize=18;strokeColor=#000000;" parent="1" vertex="1">
          <mxGeometry x="320" y="240" width="210" height="140" as="geometry" />
        </mxCell>
        <mxCell id="KQTo3xIrxq6SOfCbV4OU-1" value="" style="whiteSpace=wrap;html=1;fontSize=18;strokeColor=#000000;" parent="1" vertex="1">
          <mxGeometry x="-90" y="40" width="140" height="700" as="geometry" />
        </mxCell>
        <mxCell id="KQTo3xIrxq6SOfCbV4OU-2" value="" style="whiteSpace=wrap;html=1;fontSize=18;strokeColor=#000000;" parent="1" vertex="1">
          <mxGeometry x="50" y="40" width="910" height="60" as="geometry" />
        </mxCell>
        <mxCell id="KQTo3xIrxq6SOfCbV4OU-4" value="Healthcare Worker&amp;nbsp;&lt;br&gt;Feedback" style="rounded=1;whiteSpace=wrap;html=1;fontSize=18;strokeColor=#000000;" parent="1" vertex="1">
          <mxGeometry x="80" y="580" width="680" height="130" as="geometry" />
        </mxCell>
        <mxCell id="KQTo3xIrxq6SOfCbV4OU-5" value="Home" style="rounded=1;whiteSpace=wrap;html=1;fontSize=18;strokeColor=#000000;" parent="1" vertex="1">
          <mxGeometry x="770" y="580" width="160" height="130" as="geometry" />
        </mxCell>
        <mxCell id="KQTo3xIrxq6SOfCbV4OU-6" value="Most Requested&lt;br&gt;Healthcare Qualifications" style="rounded=1;whiteSpace=wrap;html=1;fontSize=18;strokeColor=#000000;" parent="1" vertex="1">
          <mxGeometry x="320" y="400" width="210" height="140" as="geometry" />
        </mxCell>
      </root>
    </mxGraphModel>
  </diagram>
  <diagram id="gPRXt1HrKhV1F8oMpC2l" name="Page-4">
    <mxGraphModel dx="1675" dy="1484" grid="1" gridSize="10" guides="1" tooltips="1" connect="1" arrows="1" fold="1" page="0" pageScale="1" pageWidth="827" pageHeight="1169" math="0" shadow="0">
      <root>
        <mxCell id="0" />
        <mxCell id="1" parent="0" />
        <mxCell id="n6fi6k1EtEt3gN9YeFyu-14" value="" style="whiteSpace=wrap;html=1;fontSize=18;strokeColor=#000000;fillColor=none;" vertex="1" parent="1">
          <mxGeometry x="890" y="20" width="910" height="720" as="geometry" />
        </mxCell>
        <mxCell id="goKOMeGZYbCKQyDw8khV-1" value="Image" style="ellipse;whiteSpace=wrap;html=1;aspect=fixed;fontSize=18;strokeColor=#000000;fillColor=none;" parent="1" vertex="1">
          <mxGeometry x="950" y="160" width="120" height="120" as="geometry" />
        </mxCell>
        <mxCell id="goKOMeGZYbCKQyDw8khV-7" value="FirstName" style="rounded=1;whiteSpace=wrap;html=1;fontSize=18;strokeColor=#000000;fillColor=none;" parent="1" vertex="1">
          <mxGeometry x="1180" y="180" width="260" height="30" as="geometry" />
        </mxCell>
        <mxCell id="goKOMeGZYbCKQyDw8khV-8" value="LastName" style="rounded=1;whiteSpace=wrap;html=1;fontSize=18;strokeColor=#000000;fillColor=none;" parent="1" vertex="1">
          <mxGeometry x="1470" y="180" width="260" height="30" as="geometry" />
        </mxCell>
        <mxCell id="goKOMeGZYbCKQyDw8khV-10" value="email&lt;span style=&quot;color: rgba(0 , 0 , 0 , 0) ; font-family: monospace ; font-size: 0px&quot;&gt;%3CmxGraphModel%3E%3Croot%3E%3CmxCell%20id%3D%220%22%2F%3E%3CmxCell%20id%3D%221%22%20parent%3D%220%22%2F%3E%3CmxCell%20id%3D%222%22%20value%3D%22LastName%22%20style%3D%22rounded%3D1%3BwhiteSpace%3Dwrap%3Bhtml%3D1%3BfontSize%3D18%3BstrokeColor%3D%23000000%3BfillColor%3Dnone%3B%22%20vertex%3D%221%22%20parent%3D%221%22%3E%3CmxGeometry%20x%3D%22610%22%20y%3D%2280%22%20width%3D%22260%22%20height%3D%2230%22%20as%3D%22geometry%22%2F%3E%3C%2FmxCell%3E%3C%2Froot%3E%3C%2FmxGraphModel%3E&lt;/span&gt;" style="rounded=1;whiteSpace=wrap;html=1;fontSize=18;strokeColor=#000000;fillColor=none;" parent="1" vertex="1">
          <mxGeometry x="1180" y="230" width="260" height="30" as="geometry" />
        </mxCell>
        <mxCell id="goKOMeGZYbCKQyDw8khV-11" value="Contact" style="rounded=1;whiteSpace=wrap;html=1;fontSize=18;strokeColor=#000000;fillColor=none;" parent="1" vertex="1">
          <mxGeometry x="1470" y="230" width="260" height="30" as="geometry" />
        </mxCell>
        <mxCell id="goKOMeGZYbCKQyDw8khV-12" value="dob" style="rounded=1;whiteSpace=wrap;html=1;fontSize=18;strokeColor=#000000;fillColor=none;" parent="1" vertex="1">
          <mxGeometry x="1180" y="280" width="260" height="30" as="geometry" />
        </mxCell>
        <mxCell id="goKOMeGZYbCKQyDw8khV-13" value="Gender" style="rounded=1;whiteSpace=wrap;html=1;fontSize=18;strokeColor=#000000;fillColor=none;" parent="1" vertex="1">
          <mxGeometry x="1470" y="280" width="260" height="30" as="geometry" />
        </mxCell>
        <mxCell id="goKOMeGZYbCKQyDw8khV-14" value="&lt;span style=&quot;color: rgba(0 , 0 , 0 , 0) ; font-family: monospace ; font-size: 0px&quot;&gt;%3CmxGraphModel%3E%3Croot%3E%3CmxCell%20id%3D%220%22%2F%3E%3CmxCell%20id%3D%221%22%20parent%3D%220%22%2F%3E%3CmxCell%20id%3D%222%22%20value%3D%22Gender%22%20style%3D%22rounded%3D1%3BwhiteSpace%3Dwrap%3Bhtml%3D1%3BfontSize%3D18%3BstrokeColor%3D%23000000%3BfillColor%3Dnone%3B%22%20vertex%3D%221%22%20parent%3D%221%22%3E%3CmxGeometry%20x%3D%22610%22%20y%3D%22180%22%20width%3D%22260%22%20height%3D%2230%22%20as%3D%22geometry%22%2F%3E%3C%2FmxCell%3E%3C%2Froot%3E%3C%2FmxGraphModel%3E&lt;/span&gt;job Role" style="rounded=1;whiteSpace=wrap;html=1;fontSize=18;strokeColor=#000000;fillColor=none;" parent="1" vertex="1">
          <mxGeometry x="1180" y="330" width="260" height="30" as="geometry" />
        </mxCell>
        <mxCell id="goKOMeGZYbCKQyDw8khV-81" value="" style="html=1;shadow=0;dashed=0;shape=mxgraph.bootstrap.rrect;rSize=5;strokeColor=#DFDFDF;html=1;whiteSpace=wrap;fillColor=#FFFFFF;fontColor=#000000;sketch=0;fontSize=18;" parent="1" vertex="1">
          <mxGeometry x="910" y="420" width="870" height="290" as="geometry" />
        </mxCell>
        <mxCell id="goKOMeGZYbCKQyDw8khV-82" value="" style="html=1;shadow=0;dashed=0;shape=mxgraph.bootstrap.topButton;strokeColor=inherit;fillColor=#F7F7F7;rSize=5;perimeter=none;whiteSpace=wrap;resizeWidth=1;align=center;spacing=20;fontSize=14;sketch=0;" parent="goKOMeGZYbCKQyDw8khV-81" vertex="1">
          <mxGeometry width="869.9999999999999" height="50" relative="1" as="geometry" />
        </mxCell>
        <mxCell id="goKOMeGZYbCKQyDw8khV-83" value="Payments" style="html=1;shadow=0;dashed=0;shape=mxgraph.bootstrap.tabTop;strokeColor=#DFDFDF;fillColor=#ffffff;rSize=5;perimeter=none;whiteSpace=wrap;resizeWidth=1;align=center;spacing=20;fontSize=14;fontColor=#4B5259;sketch=0;" parent="goKOMeGZYbCKQyDw8khV-81" vertex="1">
          <mxGeometry width="87" height="40" relative="1" as="geometry">
            <mxPoint x="10" y="10" as="offset" />
          </mxGeometry>
        </mxCell>
        <mxCell id="goKOMeGZYbCKQyDw8khV-84" value="Qualifications" style="strokeColor=none;fillColor=none;rSize=5;perimeter=none;whiteSpace=wrap;resizeWidth=1;align=center;spacing=20;fontSize=14;fontColor=#0085FC;sketch=0;" parent="goKOMeGZYbCKQyDw8khV-81" vertex="1">
          <mxGeometry width="54.37499999999999" height="40" relative="1" as="geometry">
            <mxPoint x="113" y="10" as="offset" />
          </mxGeometry>
        </mxCell>
        <mxCell id="goKOMeGZYbCKQyDw8khV-85" value="Training" style="strokeColor=none;fillColor=none;rSize=5;perimeter=none;whiteSpace=wrap;resizeWidth=1;align=center;spacing=20;fontSize=14;fontColor=#0085FC;fontColor=#4B5259;sketch=0;" parent="goKOMeGZYbCKQyDw8khV-81" vertex="1">
          <mxGeometry width="65.25" height="40" relative="1" as="geometry">
            <mxPoint x="193" y="10" as="offset" />
          </mxGeometry>
        </mxCell>
        <mxCell id="goKOMeGZYbCKQyDw8khV-71" value="Shift History" style="strokeColor=none;fillColor=none;rSize=5;perimeter=none;whiteSpace=wrap;resizeWidth=1;align=center;spacing=20;fontSize=14;fontColor=#0085FC;fontColor=#4B5259;sketch=0;" parent="goKOMeGZYbCKQyDw8khV-81" vertex="1">
          <mxGeometry x="253.3875" y="-0.003706563706563415" width="159.86249999999998" height="53.745173745173744" as="geometry" />
        </mxCell>
        <mxCell id="goKOMeGZYbCKQyDw8khV-140" value="Shift" style="html=1;fillColor=none;strokeColor=none;fontSize=11;align=left;fontColor=#596780;whiteSpace=wrap;sketch=1;hachureGap=4;pointerEvents=0;fontFamily=Architects Daughter;fontSource=https%3A%2F%2Ffonts.googleapis.com%2Fcss%3Ffamily%3DArchitects%2BDaughter;" parent="goKOMeGZYbCKQyDw8khV-81" vertex="1">
          <mxGeometry x="130" y="78.37837837837837" width="150" height="22.393822393822393" as="geometry" />
        </mxCell>
        <mxCell id="goKOMeGZYbCKQyDw8khV-141" value="Date" style="html=1;fillColor=none;strokeColor=none;fontSize=11;align=left;fontColor=#596780;whiteSpace=wrap;sketch=1;hachureGap=4;pointerEvents=0;fontFamily=Architects Daughter;fontSource=https%3A%2F%2Ffonts.googleapis.com%2Fcss%3Ffamily%3DArchitects%2BDaughter;" parent="goKOMeGZYbCKQyDw8khV-81" vertex="1">
          <mxGeometry x="390" y="78.37837837837837" width="40" height="22.393822393822393" as="geometry" />
        </mxCell>
        <mxCell id="goKOMeGZYbCKQyDw8khV-142" value="Hours" style="html=1;fillColor=none;strokeColor=none;fontSize=11;align=right;fontColor=#596780;whiteSpace=wrap;sketch=1;hachureGap=4;pointerEvents=0;fontFamily=Architects Daughter;fontSource=https%3A%2F%2Ffonts.googleapis.com%2Fcss%3Ffamily%3DArchitects%2BDaughter;" parent="goKOMeGZYbCKQyDw8khV-81" vertex="1">
          <mxGeometry x="430" y="78.37837837837837" width="40" height="22.393822393822393" as="geometry" />
        </mxCell>
        <mxCell id="goKOMeGZYbCKQyDw8khV-143" value="Rate" style="html=1;fillColor=none;strokeColor=none;fontSize=11;align=left;fontColor=#596780;whiteSpace=wrap;sketch=1;hachureGap=4;pointerEvents=0;fontFamily=Architects Daughter;fontSource=https%3A%2F%2Ffonts.googleapis.com%2Fcss%3Ffamily%3DArchitects%2BDaughter;" parent="goKOMeGZYbCKQyDw8khV-81" vertex="1">
          <mxGeometry x="490" y="78.37837837837837" width="90" height="22.393822393822393" as="geometry" />
        </mxCell>
        <mxCell id="goKOMeGZYbCKQyDw8khV-144" value="Total" style="html=1;fillColor=none;strokeColor=none;fontSize=11;align=center;fontColor=#596780;whiteSpace=wrap;sketch=1;hachureGap=4;pointerEvents=0;fontFamily=Architects Daughter;fontSource=https%3A%2F%2Ffonts.googleapis.com%2Fcss%3Ffamily%3DArchitects%2BDaughter;" parent="goKOMeGZYbCKQyDw8khV-81" vertex="1">
          <mxGeometry x="580" y="78.37837837837837" width="90" height="22.393822393822393" as="geometry" />
        </mxCell>
        <mxCell id="goKOMeGZYbCKQyDw8khV-146" value="" style="shape=line;strokeWidth=2;html=1;strokeColor=#DFE1E5;resizeWidth=1;sketch=1;hachureGap=4;pointerEvents=0;fontFamily=Architects Daughter;fontSource=https%3A%2F%2Ffonts.googleapis.com%2Fcss%3Ffamily%3DArchitects%2BDaughter;fontSize=20;fillColor=none;" parent="goKOMeGZYbCKQyDw8khV-81" vertex="1">
          <mxGeometry x="130" y="100.77220077220078" width="630" height="11.196911196911197" as="geometry" />
        </mxCell>
        <mxCell id="goKOMeGZYbCKQyDw8khV-147" value="" style="strokeColor=none;fillColor=#FAFBFC;html=1;sketch=1;hachureGap=4;pointerEvents=0;fontFamily=Architects Daughter;fontSource=https%3A%2F%2Ffonts.googleapis.com%2Fcss%3Ffamily%3DArchitects%2BDaughter;fontSize=20;" parent="goKOMeGZYbCKQyDw8khV-81" vertex="1">
          <mxGeometry x="120" y="107.49034749034749" width="640" height="33.59073359073359" as="geometry" />
        </mxCell>
        <mxCell id="goKOMeGZYbCKQyDw8khV-156" value="abhin/repo/api/allow_repo_updates" style="strokeColor=none;fillColor=none;fontSize=12;fontColor=#596780;align=left;html=1;sketch=0;hachureGap=4;pointerEvents=0;fontFamily=Architects Daughter;fontSource=https%3A%2F%2Ffonts.googleapis.com%2Fcss%3Ffamily%3DArchitects%2BDaughter;" parent="goKOMeGZYbCKQyDw8khV-81" vertex="1">
          <mxGeometry x="130" y="146.67953667953668" width="240" height="22.393822393822393" as="geometry" />
        </mxCell>
        <mxCell id="goKOMeGZYbCKQyDw8khV-157" value="" style="shape=mxgraph.mockup.misc.progressBar;fillColor=#3384FF;strokeColor=none;fillColor2=#F2F2F2;barPos=80;sketch=0;hachureGap=4;pointerEvents=0;fontFamily=Architects Daughter;fontSource=https%3A%2F%2Ffonts.googleapis.com%2Fcss%3Ffamily%3DArchitects%2BDaughter;fontSize=20;" parent="goKOMeGZYbCKQyDw8khV-81" vertex="1">
          <mxGeometry x="390" y="152.27799227799227" width="80" height="11.196911196911197" as="geometry" />
        </mxCell>
        <mxCell id="goKOMeGZYbCKQyDw8khV-158" value="107" style="strokeColor=none;fillColor=none;fontSize=10;fontColor=#596780;align=left;html=1;sketch=0;hachureGap=4;pointerEvents=0;fontFamily=Architects Daughter;fontSource=https%3A%2F%2Ffonts.googleapis.com%2Fcss%3Ffamily%3DArchitects%2BDaughter;" parent="goKOMeGZYbCKQyDw8khV-81" vertex="1">
          <mxGeometry x="390" y="160.1158301158301" width="40" height="22.393822393822393" as="geometry" />
        </mxCell>
        <mxCell id="goKOMeGZYbCKQyDw8khV-159" value="3" style="strokeColor=none;fillColor=none;fontSize=10;fontColor=#596780;align=right;html=1;sketch=0;hachureGap=4;pointerEvents=0;fontFamily=Architects Daughter;fontSource=https%3A%2F%2Ffonts.googleapis.com%2Fcss%3Ffamily%3DArchitects%2BDaughter;" parent="goKOMeGZYbCKQyDw8khV-81" vertex="1">
          <mxGeometry x="430" y="160.1158301158301" width="40" height="22.393822393822393" as="geometry" />
        </mxCell>
        <mxCell id="goKOMeGZYbCKQyDw8khV-160" value="5 minutes ago" style="strokeColor=none;fillColor=none;fontSize=12;fontColor=#596780;align=left;html=1;sketch=1;hachureGap=4;pointerEvents=0;fontFamily=Architects Daughter;fontSource=https%3A%2F%2Ffonts.googleapis.com%2Fcss%3Ffamily%3DArchitects%2BDaughter;" parent="goKOMeGZYbCKQyDw8khV-81" vertex="1">
          <mxGeometry x="490" y="146.67953667953668" width="50" height="22.393822393822393" as="geometry" />
        </mxCell>
        <mxCell id="goKOMeGZYbCKQyDw8khV-161" value="#10258" style="strokeColor=none;fillColor=none;fontSize=12;fontColor=#596780;align=left;html=1;sketch=1;hachureGap=4;pointerEvents=0;fontFamily=Architects Daughter;fontSource=https%3A%2F%2Ffonts.googleapis.com%2Fcss%3Ffamily%3DArchitects%2BDaughter;" parent="goKOMeGZYbCKQyDw8khV-81" vertex="1">
          <mxGeometry x="580" y="146.67953667953668" width="50" height="22.393822393822393" as="geometry" />
        </mxCell>
        <mxCell id="goKOMeGZYbCKQyDw8khV-162" value="View" style="strokeColor=none;fillColor=#CCE0FF;fontSize=11;fontColor=#3384FF;rounded=1;html=1;align=center;fontStyle=1;sketch=0;hachureGap=4;pointerEvents=0;fontFamily=Architects Daughter;fontSource=https%3A%2F%2Ffonts.googleapis.com%2Fcss%3Ffamily%3DArchitects%2BDaughter;" parent="goKOMeGZYbCKQyDw8khV-81" vertex="1">
          <mxGeometry x="630" y="146.67953667953668" width="40" height="22.393822393822393" as="geometry" />
        </mxCell>
        <mxCell id="goKOMeGZYbCKQyDw8khV-163" value="&amp;#8226;&amp;#8226;&amp;#8226;" style="shape=ellipse;fillColor=#0057D8;strokeColor=none;fontColor=#ffffff;align=center;verticalAlign=middle;whiteSpace=wrap;fontSize=10;fontStyle=0;html=1;sketch=0;hachureGap=4;pointerEvents=0;fontFamily=Architects Daughter;fontSource=https%3A%2F%2Ffonts.googleapis.com%2Fcss%3Ffamily%3DArchitects%2BDaughter;" parent="goKOMeGZYbCKQyDw8khV-81" vertex="1">
          <mxGeometry x="685" y="148.9189189189189" width="16" height="17.915057915057915" as="geometry" />
        </mxCell>
        <mxCell id="goKOMeGZYbCKQyDw8khV-164" value="zdavis/BBCDEV-1577" style="strokeColor=none;fillColor=none;fontSize=12;fontColor=#596780;align=left;html=1;sketch=0;hachureGap=4;pointerEvents=0;fontFamily=Architects Daughter;fontSource=https%3A%2F%2Ffonts.googleapis.com%2Fcss%3Ffamily%3DArchitects%2BDaughter;" parent="goKOMeGZYbCKQyDw8khV-81" vertex="1">
          <mxGeometry x="130" y="180.27027027027026" width="240" height="22.393822393822393" as="geometry" />
        </mxCell>
        <mxCell id="goKOMeGZYbCKQyDw8khV-165" value="" style="shape=mxgraph.mockup.misc.progressBar;fillColor=#3384FF;strokeColor=none;fillColor2=#F2F2F2;barPos=80;sketch=0;hachureGap=4;pointerEvents=0;fontFamily=Architects Daughter;fontSource=https%3A%2F%2Ffonts.googleapis.com%2Fcss%3Ffamily%3DArchitects%2BDaughter;fontSize=20;" parent="goKOMeGZYbCKQyDw8khV-81" vertex="1">
          <mxGeometry x="390" y="185.86872586872587" width="80" height="11.196911196911197" as="geometry" />
        </mxCell>
        <mxCell id="goKOMeGZYbCKQyDw8khV-166" value="103" style="strokeColor=none;fillColor=none;fontSize=10;fontColor=#596780;align=left;html=1;sketch=0;hachureGap=4;pointerEvents=0;fontFamily=Architects Daughter;fontSource=https%3A%2F%2Ffonts.googleapis.com%2Fcss%3Ffamily%3DArchitects%2BDaughter;" parent="goKOMeGZYbCKQyDw8khV-81" vertex="1">
          <mxGeometry x="390" y="193.7065637065637" width="40" height="22.393822393822393" as="geometry" />
        </mxCell>
        <mxCell id="goKOMeGZYbCKQyDw8khV-167" value="2" style="strokeColor=none;fillColor=none;fontSize=10;fontColor=#596780;align=right;html=1;sketch=0;hachureGap=4;pointerEvents=0;fontFamily=Architects Daughter;fontSource=https%3A%2F%2Ffonts.googleapis.com%2Fcss%3Ffamily%3DArchitects%2BDaughter;" parent="goKOMeGZYbCKQyDw8khV-81" vertex="1">
          <mxGeometry x="430" y="193.7065637065637" width="40" height="22.393822393822393" as="geometry" />
        </mxCell>
        <mxCell id="goKOMeGZYbCKQyDw8khV-168" value="5 minutes ago" style="strokeColor=none;fillColor=none;fontSize=12;fontColor=#596780;align=left;html=1;sketch=1;hachureGap=4;pointerEvents=0;fontFamily=Architects Daughter;fontSource=https%3A%2F%2Ffonts.googleapis.com%2Fcss%3Ffamily%3DArchitects%2BDaughter;" parent="goKOMeGZYbCKQyDw8khV-81" vertex="1">
          <mxGeometry x="490" y="180.27027027027026" width="50" height="22.393822393822393" as="geometry" />
        </mxCell>
        <mxCell id="goKOMeGZYbCKQyDw8khV-169" value="#10232" style="strokeColor=none;fillColor=none;fontSize=12;fontColor=#596780;align=left;html=1;sketch=1;hachureGap=4;pointerEvents=0;fontFamily=Architects Daughter;fontSource=https%3A%2F%2Ffonts.googleapis.com%2Fcss%3Ffamily%3DArchitects%2BDaughter;" parent="goKOMeGZYbCKQyDw8khV-81" vertex="1">
          <mxGeometry x="580" y="180.27027027027026" width="50" height="22.393822393822393" as="geometry" />
        </mxCell>
        <mxCell id="goKOMeGZYbCKQyDw8khV-170" value="View" style="strokeColor=none;fillColor=#CCE0FF;fontSize=11;fontColor=#3384FF;rounded=1;html=1;align=center;fontStyle=1;sketch=0;hachureGap=4;pointerEvents=0;fontFamily=Architects Daughter;fontSource=https%3A%2F%2Ffonts.googleapis.com%2Fcss%3Ffamily%3DArchitects%2BDaughter;" parent="goKOMeGZYbCKQyDw8khV-81" vertex="1">
          <mxGeometry x="630" y="180.27" width="40" height="19.73" as="geometry" />
        </mxCell>
        <mxCell id="goKOMeGZYbCKQyDw8khV-171" value="&amp;#8226;&amp;#8226;&amp;#8226;" style="shape=ellipse;fillColor=#0057D8;strokeColor=none;fontColor=#ffffff;align=center;verticalAlign=middle;whiteSpace=wrap;fontSize=10;fontStyle=0;html=1;sketch=0;hachureGap=4;pointerEvents=0;fontFamily=Architects Daughter;fontSource=https%3A%2F%2Ffonts.googleapis.com%2Fcss%3Ffamily%3DArchitects%2BDaughter;" parent="goKOMeGZYbCKQyDw8khV-81" vertex="1">
          <mxGeometry x="685" y="182.5096525096525" width="16" height="17.915057915057915" as="geometry" />
        </mxCell>
        <mxCell id="goKOMeGZYbCKQyDw8khV-172" value="tkells/BBCDEV-1631-fix-require-account=access" style="strokeColor=none;fillColor=none;fontSize=12;fontColor=#596780;align=left;html=1;sketch=0;hachureGap=4;pointerEvents=0;fontFamily=Architects Daughter;fontSource=https%3A%2F%2Ffonts.googleapis.com%2Fcss%3Ffamily%3DArchitects%2BDaughter;" parent="goKOMeGZYbCKQyDw8khV-81" vertex="1">
          <mxGeometry x="130" y="213.86100386100387" width="240" height="22.393822393822393" as="geometry" />
        </mxCell>
        <mxCell id="goKOMeGZYbCKQyDw8khV-173" value="" style="shape=mxgraph.mockup.misc.progressBar;fillColor=#3384FF;strokeColor=none;fillColor2=#F2F2F2;barPos=80;sketch=0;hachureGap=4;pointerEvents=0;fontFamily=Architects Daughter;fontSource=https%3A%2F%2Ffonts.googleapis.com%2Fcss%3Ffamily%3DArchitects%2BDaughter;fontSize=20;" parent="goKOMeGZYbCKQyDw8khV-81" vertex="1">
          <mxGeometry x="390" y="219.45945945945945" width="80" height="11.196911196911197" as="geometry" />
        </mxCell>
        <mxCell id="goKOMeGZYbCKQyDw8khV-174" value="7" style="strokeColor=none;fillColor=none;fontSize=10;fontColor=#596780;align=left;html=1;sketch=0;hachureGap=4;pointerEvents=0;fontFamily=Architects Daughter;fontSource=https%3A%2F%2Ffonts.googleapis.com%2Fcss%3Ffamily%3DArchitects%2BDaughter;" parent="goKOMeGZYbCKQyDw8khV-81" vertex="1">
          <mxGeometry x="390" y="227.2972972972973" width="40" height="22.393822393822393" as="geometry" />
        </mxCell>
        <mxCell id="goKOMeGZYbCKQyDw8khV-175" value="1" style="strokeColor=none;fillColor=none;fontSize=10;fontColor=#596780;align=right;html=1;sketch=0;hachureGap=4;pointerEvents=0;fontFamily=Architects Daughter;fontSource=https%3A%2F%2Ffonts.googleapis.com%2Fcss%3Ffamily%3DArchitects%2BDaughter;" parent="goKOMeGZYbCKQyDw8khV-81" vertex="1">
          <mxGeometry x="430" y="227.2972972972973" width="40" height="22.393822393822393" as="geometry" />
        </mxCell>
        <mxCell id="goKOMeGZYbCKQyDw8khV-176" value="25 minutes ago" style="strokeColor=none;fillColor=none;fontSize=12;fontColor=#596780;align=left;html=1;sketch=1;hachureGap=4;pointerEvents=0;fontFamily=Architects Daughter;fontSource=https%3A%2F%2Ffonts.googleapis.com%2Fcss%3Ffamily%3DArchitects%2BDaughter;" parent="goKOMeGZYbCKQyDw8khV-81" vertex="1">
          <mxGeometry x="490" y="213.86100386100387" width="50" height="22.393822393822393" as="geometry" />
        </mxCell>
        <mxCell id="goKOMeGZYbCKQyDw8khV-177" value="#10267" style="strokeColor=none;fillColor=none;fontSize=12;fontColor=#596780;align=left;html=1;sketch=1;hachureGap=4;pointerEvents=0;fontFamily=Architects Daughter;fontSource=https%3A%2F%2Ffonts.googleapis.com%2Fcss%3Ffamily%3DArchitects%2BDaughter;" parent="goKOMeGZYbCKQyDw8khV-81" vertex="1">
          <mxGeometry x="580" y="213.86100386100387" width="50" height="22.393822393822393" as="geometry" />
        </mxCell>
        <mxCell id="goKOMeGZYbCKQyDw8khV-178" value="View" style="strokeColor=none;fillColor=#CCE0FF;fontSize=11;fontColor=#3384FF;rounded=1;html=1;align=center;fontStyle=1;sketch=0;hachureGap=4;pointerEvents=0;fontFamily=Architects Daughter;fontSource=https%3A%2F%2Ffonts.googleapis.com%2Fcss%3Ffamily%3DArchitects%2BDaughter;" parent="goKOMeGZYbCKQyDw8khV-81" vertex="1">
          <mxGeometry x="630" y="213.86100386100387" width="40" height="22.393822393822393" as="geometry" />
        </mxCell>
        <mxCell id="goKOMeGZYbCKQyDw8khV-179" value="&amp;#8226;&amp;#8226;&amp;#8226;" style="shape=ellipse;fillColor=#0057D8;strokeColor=none;fontColor=#ffffff;align=center;verticalAlign=middle;whiteSpace=wrap;fontSize=10;fontStyle=0;html=1;sketch=0;hachureGap=4;pointerEvents=0;fontFamily=Architects Daughter;fontSource=https%3A%2F%2Ffonts.googleapis.com%2Fcss%3Ffamily%3DArchitects%2BDaughter;" parent="goKOMeGZYbCKQyDw8khV-81" vertex="1">
          <mxGeometry x="685" y="216.1003861003861" width="16" height="17.915057915057915" as="geometry" />
        </mxCell>
        <mxCell id="goKOMeGZYbCKQyDw8khV-180" value="jmooring/BBDEV-1603" style="strokeColor=none;fillColor=none;fontSize=12;fontColor=#596780;align=left;html=1;sketch=0;hachureGap=4;pointerEvents=0;fontFamily=Architects Daughter;fontSource=https%3A%2F%2Ffonts.googleapis.com%2Fcss%3Ffamily%3DArchitects%2BDaughter;" parent="goKOMeGZYbCKQyDw8khV-81" vertex="1">
          <mxGeometry x="130" y="247.45173745173744" width="240" height="22.393822393822393" as="geometry" />
        </mxCell>
        <mxCell id="goKOMeGZYbCKQyDw8khV-181" value="" style="shape=mxgraph.mockup.misc.progressBar;fillColor=#3384FF;strokeColor=none;fillColor2=#F2F2F2;barPos=80;sketch=0;hachureGap=4;pointerEvents=0;fontFamily=Architects Daughter;fontSource=https%3A%2F%2Ffonts.googleapis.com%2Fcss%3Ffamily%3DArchitects%2BDaughter;fontSize=20;" parent="goKOMeGZYbCKQyDw8khV-81" vertex="1">
          <mxGeometry x="390" y="253.05019305019306" width="80" height="11.196911196911197" as="geometry" />
        </mxCell>
        <mxCell id="goKOMeGZYbCKQyDw8khV-182" value="2" style="strokeColor=none;fillColor=none;fontSize=10;fontColor=#596780;align=left;html=1;sketch=0;hachureGap=4;pointerEvents=0;fontFamily=Architects Daughter;fontSource=https%3A%2F%2Ffonts.googleapis.com%2Fcss%3Ffamily%3DArchitects%2BDaughter;" parent="goKOMeGZYbCKQyDw8khV-81" vertex="1">
          <mxGeometry x="390" y="260.88803088803087" width="40" height="22.393822393822393" as="geometry" />
        </mxCell>
        <mxCell id="goKOMeGZYbCKQyDw8khV-183" value="14" style="strokeColor=none;fillColor=none;fontSize=10;fontColor=#596780;align=right;html=1;sketch=0;hachureGap=4;pointerEvents=0;fontFamily=Architects Daughter;fontSource=https%3A%2F%2Ffonts.googleapis.com%2Fcss%3Ffamily%3DArchitects%2BDaughter;" parent="goKOMeGZYbCKQyDw8khV-81" vertex="1">
          <mxGeometry x="430" y="260.88803088803087" width="40" height="22.393822393822393" as="geometry" />
        </mxCell>
        <mxCell id="goKOMeGZYbCKQyDw8khV-184" value="29 minutes ago" style="strokeColor=none;fillColor=none;fontSize=12;fontColor=#596780;align=left;html=1;sketch=1;hachureGap=4;pointerEvents=0;fontFamily=Architects Daughter;fontSource=https%3A%2F%2Ffonts.googleapis.com%2Fcss%3Ffamily%3DArchitects%2BDaughter;" parent="goKOMeGZYbCKQyDw8khV-81" vertex="1">
          <mxGeometry x="490" y="247.45173745173744" width="50" height="22.393822393822393" as="geometry" />
        </mxCell>
        <mxCell id="goKOMeGZYbCKQyDw8khV-185" value="#10244" style="strokeColor=none;fillColor=none;fontSize=12;fontColor=#0057D8;align=left;html=1;sketch=1;hachureGap=4;pointerEvents=0;fontFamily=Architects Daughter;fontSource=https%3A%2F%2Ffonts.googleapis.com%2Fcss%3Ffamily%3DArchitects%2BDaughter;" parent="goKOMeGZYbCKQyDw8khV-81" vertex="1">
          <mxGeometry x="580" y="247.45173745173744" width="50" height="22.393822393822393" as="geometry" />
        </mxCell>
        <mxCell id="goKOMeGZYbCKQyDw8khV-187" value="" style="html=1;shadow=0;dashed=0;shape=mxgraph.atlassian.checkbox;fillColor=#008465;strokeColor=none;fontColor=#ffffff;align=center;verticalAlign=middle;whiteSpace=wrap;fontSize=10;fontStyle=0;html=1;sketch=0;hachureGap=4;pointerEvents=0;fontFamily=Architects Daughter;fontSource=https%3A%2F%2Ffonts.googleapis.com%2Fcss%3Ffamily%3DArchitects%2BDaughter;" parent="goKOMeGZYbCKQyDw8khV-81" vertex="1">
          <mxGeometry x="685" y="249.6911196911197" width="16" height="17.915057915057915" as="geometry" />
        </mxCell>
        <mxCell id="goKOMeGZYbCKQyDw8khV-188" value="" style="shape=line;strokeWidth=2;html=1;strokeColor=#DFE1E5;resizeWidth=1;sketch=1;hachureGap=4;pointerEvents=0;fontFamily=Architects Daughter;fontSource=https%3A%2F%2Ffonts.googleapis.com%2Fcss%3Ffamily%3DArchitects%2BDaughter;fontSize=20;fillColor=none;" parent="goKOMeGZYbCKQyDw8khV-81" vertex="1">
          <mxGeometry x="130" y="278.8030888030888" width="630" height="11.196911196911197" as="geometry" />
        </mxCell>
        <mxCell id="sWl5GqPn5sPdI29wGdrK-1" value="ID" style="html=1;fillColor=none;strokeColor=none;fontSize=11;align=left;fontColor=#596780;whiteSpace=wrap;sketch=1;hachureGap=4;pointerEvents=0;fontFamily=Architects Daughter;fontSource=https%3A%2F%2Ffonts.googleapis.com%2Fcss%3Ffamily%3DArchitects%2BDaughter;" vertex="1" parent="goKOMeGZYbCKQyDw8khV-81">
          <mxGeometry x="30" y="78.37837837837839" width="150" height="22.393822393822393" as="geometry" />
        </mxCell>
        <mxCell id="sWl5GqPn5sPdI29wGdrK-5" value="223" style="html=1;fillColor=none;strokeColor=none;fontSize=11;align=left;fontColor=#596780;whiteSpace=wrap;sketch=1;hachureGap=4;pointerEvents=0;fontFamily=Architects Daughter;fontSource=https%3A%2F%2Ffonts.googleapis.com%2Fcss%3Ffamily%3DArchitects%2BDaughter;" vertex="1" parent="goKOMeGZYbCKQyDw8khV-81">
          <mxGeometry x="30" y="150.62" width="30" height="14.52" as="geometry" />
        </mxCell>
        <mxCell id="sWl5GqPn5sPdI29wGdrK-6" value="223" style="html=1;fillColor=none;strokeColor=none;fontSize=11;align=left;fontColor=#596780;whiteSpace=wrap;sketch=1;hachureGap=4;pointerEvents=0;fontFamily=Architects Daughter;fontSource=https%3A%2F%2Ffonts.googleapis.com%2Fcss%3Ffamily%3DArchitects%2BDaughter;" vertex="1" parent="goKOMeGZYbCKQyDw8khV-81">
          <mxGeometry x="30" y="178.03000000000003" width="30" height="22.39" as="geometry" />
        </mxCell>
        <mxCell id="sWl5GqPn5sPdI29wGdrK-7" value="223" style="html=1;fillColor=none;strokeColor=none;fontSize=11;align=left;fontColor=#596780;whiteSpace=wrap;sketch=1;hachureGap=4;pointerEvents=0;fontFamily=Architects Daughter;fontSource=https%3A%2F%2Ffonts.googleapis.com%2Fcss%3Ffamily%3DArchitects%2BDaughter;" vertex="1" parent="goKOMeGZYbCKQyDw8khV-81">
          <mxGeometry x="30" y="213.86" width="30" height="22.39" as="geometry" />
        </mxCell>
        <mxCell id="sWl5GqPn5sPdI29wGdrK-8" value="223" style="html=1;fillColor=none;strokeColor=none;fontSize=11;align=left;fontColor=#596780;whiteSpace=wrap;sketch=1;hachureGap=4;pointerEvents=0;fontFamily=Architects Daughter;fontSource=https%3A%2F%2Ffonts.googleapis.com%2Fcss%3Ffamily%3DArchitects%2BDaughter;" vertex="1" parent="goKOMeGZYbCKQyDw8khV-81">
          <mxGeometry x="30" y="247.45000000000005" width="30" height="22.39" as="geometry" />
        </mxCell>
        <mxCell id="sWl5GqPn5sPdI29wGdrK-9" value="View" style="strokeColor=none;fillColor=#CCE0FF;fontSize=11;fontColor=#3384FF;rounded=1;html=1;align=center;fontStyle=1;sketch=0;hachureGap=4;pointerEvents=0;fontFamily=Architects Daughter;fontSource=https%3A%2F%2Ffonts.googleapis.com%2Fcss%3Ffamily%3DArchitects%2BDaughter;" vertex="1" parent="goKOMeGZYbCKQyDw8khV-81">
          <mxGeometry x="630" y="247.45100386100387" width="40" height="22.393822393822393" as="geometry" />
        </mxCell>
        <mxCell id="n6fi6k1EtEt3gN9YeFyu-28" value="Requests" style="strokeColor=none;fillColor=none;rSize=5;perimeter=none;whiteSpace=wrap;resizeWidth=1;align=center;spacing=20;fontSize=14;fontColor=#0085FC;fontColor=#4B5259;sketch=0;" vertex="1" parent="goKOMeGZYbCKQyDw8khV-81">
          <mxGeometry x="355.0675000000001" y="-0.003706563706543875" width="159.86249999999998" height="53.745173745173744" as="geometry" />
        </mxCell>
        <mxCell id="sWl5GqPn5sPdI29wGdrK-13" value="Example file input" style="fillColor=none;strokeColor=none;align=left;fontSize=14;sketch=0;" vertex="1" parent="1">
          <mxGeometry x="950" y="300" width="150" height="40" as="geometry" />
        </mxCell>
        <mxCell id="sWl5GqPn5sPdI29wGdrK-14" value="Choose File" style="fillColor=#FEFEFE;strokeColor=#AAAAAA;fontSize=14;gradientColor=#F0F0F0;sketch=0;" vertex="1" parent="1">
          <mxGeometry x="950" y="340" width="90" height="30" as="geometry" />
        </mxCell>
        <mxCell id="sWl5GqPn5sPdI29wGdrK-15" value="No file chosen" style="fillColor=none;strokeColor=none;align=left;fontSize=14;spacing=5;sketch=0;" vertex="1" parent="1">
          <mxGeometry x="1040" y="340" width="100" height="30" as="geometry" />
        </mxCell>
        <mxCell id="sWl5GqPn5sPdI29wGdrK-16" value="Update" style="rounded=1;whiteSpace=wrap;html=1;arcSize=50;strokeColor=#001DBC;strokeWidth=1;fillColor=#0050ef;fontColor=#ffffff;whiteSpace=wrap;align=center;verticalAlign=middle;spacingLeft=0;fontStyle=1;fontSize=14;spacing=10;sketch=0;" vertex="1" parent="1">
          <mxGeometry x="1470" y="335" width="110" height="35" as="geometry" />
        </mxCell>
        <mxCell id="n6fi6k1EtEt3gN9YeFyu-22" value="" style="whiteSpace=wrap;html=1;fontSize=18;strokeColor=#000000;" vertex="1" parent="1">
          <mxGeometry x="750" y="-40" width="140" height="780" as="geometry" />
        </mxCell>
        <mxCell id="n6fi6k1EtEt3gN9YeFyu-23" value="" style="whiteSpace=wrap;html=1;fontSize=18;strokeColor=#000000;" vertex="1" parent="1">
          <mxGeometry x="890" y="-40" width="910" height="60" as="geometry" />
        </mxCell>
        <mxCell id="esWVAgd66S6OnBtzS9Qt-1" value="" style="html=1;shadow=0;dashed=0;shape=mxgraph.bootstrap.rrect;rSize=5;strokeColor=#D6D8DB;strokeWidth=1;fillColor=#E2E3E5;fontColor=#383D41;whiteSpace=wrap;align=left;verticalAlign=middle;spacingLeft=10;sketch=0;" vertex="1" parent="1">
          <mxGeometry x="910" y="50" width="870" height="40" as="geometry" />
        </mxCell>
        <mxCell id="esWVAgd66S6OnBtzS9Qt-2" value="&lt;h1&gt;Pleo Profile: Jon Smith&amp;nbsp;&lt;/h1&gt;&lt;p&gt;Lorem ipsum dolor sit amet, consectetur adipisicing elit, sed do eiusmod tempor incididunt ut labore et dolore magna aliqua.&lt;/p&gt;" style="text;html=1;strokeColor=none;fillColor=none;spacing=5;spacingTop=-20;whiteSpace=wrap;overflow=hidden;rounded=0;sketch=0;" vertex="1" parent="1">
          <mxGeometry x="925" y="50" width="300" height="120" as="geometry" />
        </mxCell>
      </root>
    </mxGraphModel>
  </diagram>
  <diagram id="UQGYa_CjF_c4ei_fR3vS" name="Page-5">
    <mxGraphModel dx="3109" dy="2361" grid="1" gridSize="10" guides="1" tooltips="1" connect="1" arrows="1" fold="1" page="1" pageScale="1" pageWidth="827" pageHeight="1169" math="0" shadow="0">
      <root>
        <mxCell id="0" />
        <mxCell id="1" parent="0" />
        <mxCell id="-Rk6XNzhgcBps47neuGn-1" value="" style="html=1;shadow=0;dashed=0;shape=mxgraph.bootstrap.rrect;rSize=5;strokeColor=#DFDFDF;html=1;whiteSpace=wrap;fillColor=#FFFFFF;fontColor=#000000;sketch=0;fontSize=18;" vertex="1" parent="1">
          <mxGeometry x="-395" y="90" width="870" height="290" as="geometry" />
        </mxCell>
        <mxCell id="-Rk6XNzhgcBps47neuGn-2" value="" style="html=1;shadow=0;dashed=0;shape=mxgraph.bootstrap.topButton;strokeColor=inherit;fillColor=#F7F7F7;rSize=5;perimeter=none;whiteSpace=wrap;resizeWidth=1;align=center;spacing=20;fontSize=14;sketch=0;" vertex="1" parent="-Rk6XNzhgcBps47neuGn-1">
          <mxGeometry width="869.9999999999999" height="50" relative="1" as="geometry" />
        </mxCell>
        <mxCell id="-Rk6XNzhgcBps47neuGn-7" value="Shift ID" style="html=1;fillColor=none;strokeColor=none;fontSize=11;align=left;fontColor=#596780;whiteSpace=wrap;sketch=1;hachureGap=4;pointerEvents=0;fontFamily=Architects Daughter;fontSource=https%3A%2F%2Ffonts.googleapis.com%2Fcss%3Ffamily%3DArchitects%2BDaughter;" vertex="1" parent="-Rk6XNzhgcBps47neuGn-1">
          <mxGeometry x="66" y="78.38" width="44" height="22.39" as="geometry" />
        </mxCell>
        <mxCell id="-Rk6XNzhgcBps47neuGn-8" value="Careworker ID" style="html=1;fillColor=none;strokeColor=none;fontSize=11;align=left;fontColor=#596780;whiteSpace=wrap;sketch=1;hachureGap=4;pointerEvents=0;fontFamily=Architects Daughter;fontSource=https%3A%2F%2Ffonts.googleapis.com%2Fcss%3Ffamily%3DArchitects%2BDaughter;" vertex="1" parent="-Rk6XNzhgcBps47neuGn-1">
          <mxGeometry x="120" y="78.38" width="100" height="22.39" as="geometry" />
        </mxCell>
        <mxCell id="-Rk6XNzhgcBps47neuGn-11" value="Date" style="html=1;fillColor=none;strokeColor=none;fontSize=11;align=center;fontColor=#596780;whiteSpace=wrap;sketch=1;hachureGap=4;pointerEvents=0;fontFamily=Architects Daughter;fontSource=https%3A%2F%2Ffonts.googleapis.com%2Fcss%3Ffamily%3DArchitects%2BDaughter;" vertex="1" parent="-Rk6XNzhgcBps47neuGn-1">
          <mxGeometry x="626" y="76.71837837837838" width="90" height="22.393822393822393" as="geometry" />
        </mxCell>
        <mxCell id="-Rk6XNzhgcBps47neuGn-12" value="" style="shape=line;strokeWidth=2;html=1;strokeColor=#DFE1E5;resizeWidth=1;sketch=1;hachureGap=4;pointerEvents=0;fontFamily=Architects Daughter;fontSource=https%3A%2F%2Ffonts.googleapis.com%2Fcss%3Ffamily%3DArchitects%2BDaughter;fontSize=20;fillColor=none;" vertex="1" parent="-Rk6XNzhgcBps47neuGn-1">
          <mxGeometry x="130" y="100.77220077220078" width="630" height="11.196911196911197" as="geometry" />
        </mxCell>
        <mxCell id="-Rk6XNzhgcBps47neuGn-13" value="" style="strokeColor=none;fillColor=#FAFBFC;html=1;sketch=1;hachureGap=4;pointerEvents=0;fontFamily=Architects Daughter;fontSource=https%3A%2F%2Ffonts.googleapis.com%2Fcss%3Ffamily%3DArchitects%2BDaughter;fontSize=20;" vertex="1" parent="-Rk6XNzhgcBps47neuGn-1">
          <mxGeometry x="120" y="107.49034749034749" width="640" height="33.59073359073359" as="geometry" />
        </mxCell>
        <mxCell id="-Rk6XNzhgcBps47neuGn-14" value="abhin/repo/api/allow_repo_updates" style="strokeColor=none;fillColor=none;fontSize=12;fontColor=#596780;align=left;html=1;sketch=0;hachureGap=4;pointerEvents=0;fontFamily=Architects Daughter;fontSource=https%3A%2F%2Ffonts.googleapis.com%2Fcss%3Ffamily%3DArchitects%2BDaughter;" vertex="1" parent="-Rk6XNzhgcBps47neuGn-1">
          <mxGeometry x="336" y="146.6695366795367" width="240" height="22.393822393822393" as="geometry" />
        </mxCell>
        <mxCell id="-Rk6XNzhgcBps47neuGn-20" value="Verify" style="strokeColor=none;fillColor=#CCE0FF;fontSize=11;fontColor=#3384FF;rounded=1;html=1;align=center;fontStyle=1;sketch=0;hachureGap=4;pointerEvents=0;fontFamily=Architects Daughter;fontSource=https%3A%2F%2Ffonts.googleapis.com%2Fcss%3Ffamily%3DArchitects%2BDaughter;" vertex="1" parent="-Rk6XNzhgcBps47neuGn-1">
          <mxGeometry x="726" y="141.0795366795367" width="40" height="22.393822393822393" as="geometry" />
        </mxCell>
        <mxCell id="-Rk6XNzhgcBps47neuGn-22" value="zdavis/BBCDEV-1577" style="strokeColor=none;fillColor=none;fontSize=12;fontColor=#596780;align=left;html=1;sketch=0;hachureGap=4;pointerEvents=0;fontFamily=Architects Daughter;fontSource=https%3A%2F%2Ffonts.googleapis.com%2Fcss%3Ffamily%3DArchitects%2BDaughter;" vertex="1" parent="-Rk6XNzhgcBps47neuGn-1">
          <mxGeometry x="336" y="180.26027027027027" width="240" height="22.393822393822393" as="geometry" />
        </mxCell>
        <mxCell id="-Rk6XNzhgcBps47neuGn-30" value="tkells/BBCDEV-1631-fix-require-account=access" style="strokeColor=none;fillColor=none;fontSize=12;fontColor=#596780;align=left;html=1;sketch=0;hachureGap=4;pointerEvents=0;fontFamily=Architects Daughter;fontSource=https%3A%2F%2Ffonts.googleapis.com%2Fcss%3Ffamily%3DArchitects%2BDaughter;" vertex="1" parent="-Rk6XNzhgcBps47neuGn-1">
          <mxGeometry x="336" y="213.85100386100387" width="240" height="22.393822393822393" as="geometry" />
        </mxCell>
        <mxCell id="-Rk6XNzhgcBps47neuGn-38" value="jmooring/BBDEV-1603" style="strokeColor=none;fillColor=none;fontSize=12;fontColor=#596780;align=left;html=1;sketch=0;hachureGap=4;pointerEvents=0;fontFamily=Architects Daughter;fontSource=https%3A%2F%2Ffonts.googleapis.com%2Fcss%3Ffamily%3DArchitects%2BDaughter;" vertex="1" parent="-Rk6XNzhgcBps47neuGn-1">
          <mxGeometry x="336" y="247.44173745173745" width="240" height="22.393822393822393" as="geometry" />
        </mxCell>
        <mxCell id="-Rk6XNzhgcBps47neuGn-45" value="" style="shape=line;strokeWidth=2;html=1;strokeColor=#DFE1E5;resizeWidth=1;sketch=1;hachureGap=4;pointerEvents=0;fontFamily=Architects Daughter;fontSource=https%3A%2F%2Ffonts.googleapis.com%2Fcss%3Ffamily%3DArchitects%2BDaughter;fontSize=20;fillColor=none;" vertex="1" parent="-Rk6XNzhgcBps47neuGn-1">
          <mxGeometry x="130" y="278.8030888030888" width="630" height="11.196911196911197" as="geometry" />
        </mxCell>
        <mxCell id="-Rk6XNzhgcBps47neuGn-46" value="ID" style="html=1;fillColor=none;strokeColor=none;fontSize=11;align=left;fontColor=#596780;whiteSpace=wrap;sketch=1;hachureGap=4;pointerEvents=0;fontFamily=Architects Daughter;fontSource=https%3A%2F%2Ffonts.googleapis.com%2Fcss%3Ffamily%3DArchitects%2BDaughter;" vertex="1" parent="-Rk6XNzhgcBps47neuGn-1">
          <mxGeometry x="30" y="78.38" width="10" height="22.39" as="geometry" />
        </mxCell>
        <mxCell id="-Rk6XNzhgcBps47neuGn-47" value="223" style="html=1;fillColor=none;strokeColor=none;fontSize=11;align=left;fontColor=#596780;whiteSpace=wrap;sketch=1;hachureGap=4;pointerEvents=0;fontFamily=Architects Daughter;fontSource=https%3A%2F%2Ffonts.googleapis.com%2Fcss%3Ffamily%3DArchitects%2BDaughter;" vertex="1" parent="-Rk6XNzhgcBps47neuGn-1">
          <mxGeometry x="30" y="150.62" width="30" height="14.52" as="geometry" />
        </mxCell>
        <mxCell id="-Rk6XNzhgcBps47neuGn-48" value="223" style="html=1;fillColor=none;strokeColor=none;fontSize=11;align=left;fontColor=#596780;whiteSpace=wrap;sketch=1;hachureGap=4;pointerEvents=0;fontFamily=Architects Daughter;fontSource=https%3A%2F%2Ffonts.googleapis.com%2Fcss%3Ffamily%3DArchitects%2BDaughter;" vertex="1" parent="-Rk6XNzhgcBps47neuGn-1">
          <mxGeometry x="30" y="178.03000000000003" width="30" height="22.39" as="geometry" />
        </mxCell>
        <mxCell id="-Rk6XNzhgcBps47neuGn-49" value="223" style="html=1;fillColor=none;strokeColor=none;fontSize=11;align=left;fontColor=#596780;whiteSpace=wrap;sketch=1;hachureGap=4;pointerEvents=0;fontFamily=Architects Daughter;fontSource=https%3A%2F%2Ffonts.googleapis.com%2Fcss%3Ffamily%3DArchitects%2BDaughter;" vertex="1" parent="-Rk6XNzhgcBps47neuGn-1">
          <mxGeometry x="30" y="213.86" width="30" height="22.39" as="geometry" />
        </mxCell>
        <mxCell id="-Rk6XNzhgcBps47neuGn-50" value="223" style="html=1;fillColor=none;strokeColor=none;fontSize=11;align=left;fontColor=#596780;whiteSpace=wrap;sketch=1;hachureGap=4;pointerEvents=0;fontFamily=Architects Daughter;fontSource=https%3A%2F%2Ffonts.googleapis.com%2Fcss%3Ffamily%3DArchitects%2BDaughter;" vertex="1" parent="-Rk6XNzhgcBps47neuGn-1">
          <mxGeometry x="30" y="247.45000000000005" width="30" height="22.39" as="geometry" />
        </mxCell>
        <mxCell id="-Rk6XNzhgcBps47neuGn-53" value="223" style="html=1;fillColor=none;strokeColor=none;fontSize=11;align=left;fontColor=#596780;whiteSpace=wrap;sketch=1;hachureGap=4;pointerEvents=0;fontFamily=Architects Daughter;fontSource=https%3A%2F%2Ffonts.googleapis.com%2Fcss%3Ffamily%3DArchitects%2BDaughter;" vertex="1" parent="-Rk6XNzhgcBps47neuGn-1">
          <mxGeometry x="73" y="152.28000000000003" width="30" height="14.52" as="geometry" />
        </mxCell>
        <mxCell id="-Rk6XNzhgcBps47neuGn-54" value="223" style="html=1;fillColor=none;strokeColor=none;fontSize=11;align=left;fontColor=#596780;whiteSpace=wrap;sketch=1;hachureGap=4;pointerEvents=0;fontFamily=Architects Daughter;fontSource=https%3A%2F%2Ffonts.googleapis.com%2Fcss%3Ffamily%3DArchitects%2BDaughter;" vertex="1" parent="-Rk6XNzhgcBps47neuGn-1">
          <mxGeometry x="73" y="179.69000000000005" width="30" height="22.39" as="geometry" />
        </mxCell>
        <mxCell id="-Rk6XNzhgcBps47neuGn-55" value="223" style="html=1;fillColor=none;strokeColor=none;fontSize=11;align=left;fontColor=#596780;whiteSpace=wrap;sketch=1;hachureGap=4;pointerEvents=0;fontFamily=Architects Daughter;fontSource=https%3A%2F%2Ffonts.googleapis.com%2Fcss%3Ffamily%3DArchitects%2BDaughter;" vertex="1" parent="-Rk6XNzhgcBps47neuGn-1">
          <mxGeometry x="73" y="215.52000000000004" width="30" height="22.39" as="geometry" />
        </mxCell>
        <mxCell id="-Rk6XNzhgcBps47neuGn-56" value="223" style="html=1;fillColor=none;strokeColor=none;fontSize=11;align=left;fontColor=#596780;whiteSpace=wrap;sketch=1;hachureGap=4;pointerEvents=0;fontFamily=Architects Daughter;fontSource=https%3A%2F%2Ffonts.googleapis.com%2Fcss%3Ffamily%3DArchitects%2BDaughter;" vertex="1" parent="-Rk6XNzhgcBps47neuGn-1">
          <mxGeometry x="73" y="249.11000000000007" width="30" height="22.39" as="geometry" />
        </mxCell>
        <mxCell id="-Rk6XNzhgcBps47neuGn-57" value="223" style="html=1;fillColor=none;strokeColor=none;fontSize=11;align=left;fontColor=#596780;whiteSpace=wrap;sketch=1;hachureGap=4;pointerEvents=0;fontFamily=Architects Daughter;fontSource=https%3A%2F%2Ffonts.googleapis.com%2Fcss%3Ffamily%3DArchitects%2BDaughter;" vertex="1" parent="-Rk6XNzhgcBps47neuGn-1">
          <mxGeometry x="155" y="150.62" width="30" height="14.52" as="geometry" />
        </mxCell>
        <mxCell id="-Rk6XNzhgcBps47neuGn-58" value="223" style="html=1;fillColor=none;strokeColor=none;fontSize=11;align=left;fontColor=#596780;whiteSpace=wrap;sketch=1;hachureGap=4;pointerEvents=0;fontFamily=Architects Daughter;fontSource=https%3A%2F%2Ffonts.googleapis.com%2Fcss%3Ffamily%3DArchitects%2BDaughter;" vertex="1" parent="-Rk6XNzhgcBps47neuGn-1">
          <mxGeometry x="155" y="178.03000000000003" width="30" height="22.39" as="geometry" />
        </mxCell>
        <mxCell id="-Rk6XNzhgcBps47neuGn-59" value="223" style="html=1;fillColor=none;strokeColor=none;fontSize=11;align=left;fontColor=#596780;whiteSpace=wrap;sketch=1;hachureGap=4;pointerEvents=0;fontFamily=Architects Daughter;fontSource=https%3A%2F%2Ffonts.googleapis.com%2Fcss%3Ffamily%3DArchitects%2BDaughter;" vertex="1" parent="-Rk6XNzhgcBps47neuGn-1">
          <mxGeometry x="155" y="213.86" width="30" height="22.39" as="geometry" />
        </mxCell>
        <mxCell id="-Rk6XNzhgcBps47neuGn-60" value="223" style="html=1;fillColor=none;strokeColor=none;fontSize=11;align=left;fontColor=#596780;whiteSpace=wrap;sketch=1;hachureGap=4;pointerEvents=0;fontFamily=Architects Daughter;fontSource=https%3A%2F%2Ffonts.googleapis.com%2Fcss%3Ffamily%3DArchitects%2BDaughter;" vertex="1" parent="-Rk6XNzhgcBps47neuGn-1">
          <mxGeometry x="155" y="247.45000000000005" width="30" height="22.39" as="geometry" />
        </mxCell>
        <mxCell id="-Rk6XNzhgcBps47neuGn-61" value="Shift&amp;nbsp;" style="html=1;fillColor=none;strokeColor=none;fontSize=11;align=left;fontColor=#596780;whiteSpace=wrap;sketch=1;hachureGap=4;pointerEvents=0;fontFamily=Architects Daughter;fontSource=https%3A%2F%2Ffonts.googleapis.com%2Fcss%3Ffamily%3DArchitects%2BDaughter;" vertex="1" parent="-Rk6XNzhgcBps47neuGn-1">
          <mxGeometry x="336" y="76.72" width="100" height="22.39" as="geometry" />
        </mxCell>
        <mxCell id="-Rk6XNzhgcBps47neuGn-62" value="223" style="html=1;fillColor=none;strokeColor=none;fontSize=11;align=left;fontColor=#596780;whiteSpace=wrap;sketch=1;hachureGap=4;pointerEvents=0;fontFamily=Architects Daughter;fontSource=https%3A%2F%2Ffonts.googleapis.com%2Fcss%3Ffamily%3DArchitects%2BDaughter;" vertex="1" parent="-Rk6XNzhgcBps47neuGn-1">
          <mxGeometry x="656" y="148.96" width="30" height="14.52" as="geometry" />
        </mxCell>
        <mxCell id="-Rk6XNzhgcBps47neuGn-63" value="223" style="html=1;fillColor=none;strokeColor=none;fontSize=11;align=left;fontColor=#596780;whiteSpace=wrap;sketch=1;hachureGap=4;pointerEvents=0;fontFamily=Architects Daughter;fontSource=https%3A%2F%2Ffonts.googleapis.com%2Fcss%3Ffamily%3DArchitects%2BDaughter;" vertex="1" parent="-Rk6XNzhgcBps47neuGn-1">
          <mxGeometry x="656" y="176.37000000000003" width="30" height="22.39" as="geometry" />
        </mxCell>
        <mxCell id="-Rk6XNzhgcBps47neuGn-64" value="223" style="html=1;fillColor=none;strokeColor=none;fontSize=11;align=left;fontColor=#596780;whiteSpace=wrap;sketch=1;hachureGap=4;pointerEvents=0;fontFamily=Architects Daughter;fontSource=https%3A%2F%2Ffonts.googleapis.com%2Fcss%3Ffamily%3DArchitects%2BDaughter;" vertex="1" parent="-Rk6XNzhgcBps47neuGn-1">
          <mxGeometry x="656" y="212.20000000000002" width="30" height="22.39" as="geometry" />
        </mxCell>
        <mxCell id="-Rk6XNzhgcBps47neuGn-65" value="223" style="html=1;fillColor=none;strokeColor=none;fontSize=11;align=left;fontColor=#596780;whiteSpace=wrap;sketch=1;hachureGap=4;pointerEvents=0;fontFamily=Architects Daughter;fontSource=https%3A%2F%2Ffonts.googleapis.com%2Fcss%3Ffamily%3DArchitects%2BDaughter;" vertex="1" parent="-Rk6XNzhgcBps47neuGn-1">
          <mxGeometry x="656" y="245.79000000000005" width="30" height="22.39" as="geometry" />
        </mxCell>
        <mxCell id="-Rk6XNzhgcBps47neuGn-66" value="Verify" style="strokeColor=none;fillColor=#CCE0FF;fontSize=11;fontColor=#3384FF;rounded=1;html=1;align=center;fontStyle=1;sketch=0;hachureGap=4;pointerEvents=0;fontFamily=Architects Daughter;fontSource=https%3A%2F%2Ffonts.googleapis.com%2Fcss%3Ffamily%3DArchitects%2BDaughter;" vertex="1" parent="-Rk6XNzhgcBps47neuGn-1">
          <mxGeometry x="726" y="178.02953667953665" width="40" height="22.393822393822393" as="geometry" />
        </mxCell>
        <mxCell id="-Rk6XNzhgcBps47neuGn-67" value="Verify" style="strokeColor=none;fillColor=#CCE0FF;fontSize=11;fontColor=#3384FF;rounded=1;html=1;align=center;fontStyle=1;sketch=0;hachureGap=4;pointerEvents=0;fontFamily=Architects Daughter;fontSource=https%3A%2F%2Ffonts.googleapis.com%2Fcss%3Ffamily%3DArchitects%2BDaughter;" vertex="1" parent="-Rk6XNzhgcBps47neuGn-1">
          <mxGeometry x="726" y="213.85953667953663" width="40" height="22.393822393822393" as="geometry" />
        </mxCell>
        <mxCell id="-Rk6XNzhgcBps47neuGn-68" value="Verify" style="strokeColor=none;fillColor=#CCE0FF;fontSize=11;fontColor=#3384FF;rounded=1;html=1;align=center;fontStyle=1;sketch=0;hachureGap=4;pointerEvents=0;fontFamily=Architects Daughter;fontSource=https%3A%2F%2Ffonts.googleapis.com%2Fcss%3Ffamily%3DArchitects%2BDaughter;" vertex="1" parent="-Rk6XNzhgcBps47neuGn-1">
          <mxGeometry x="726" y="249.10953667953663" width="40" height="22.393822393822393" as="geometry" />
        </mxCell>
        <mxCell id="-Rk6XNzhgcBps47neuGn-72" value="LastName" style="html=1;fillColor=none;strokeColor=none;fontSize=11;align=left;fontColor=#596780;whiteSpace=wrap;sketch=1;hachureGap=4;pointerEvents=0;fontFamily=Architects Daughter;fontSource=https%3A%2F%2Ffonts.googleapis.com%2Fcss%3Ffamily%3DArchitects%2BDaughter;" vertex="1" parent="-Rk6XNzhgcBps47neuGn-1">
          <mxGeometry x="230" y="78.38" width="70" height="22.39" as="geometry" />
        </mxCell>
        <mxCell id="-Rk6XNzhgcBps47neuGn-74" value="Smith" style="html=1;fillColor=none;strokeColor=none;fontSize=11;align=left;fontColor=#596780;whiteSpace=wrap;sketch=1;hachureGap=4;pointerEvents=0;fontFamily=Architects Daughter;fontSource=https%3A%2F%2Ffonts.googleapis.com%2Fcss%3Ffamily%3DArchitects%2BDaughter;" vertex="1" parent="-Rk6XNzhgcBps47neuGn-1">
          <mxGeometry x="240" y="148.34000000000006" width="30" height="22.39" as="geometry" />
        </mxCell>
        <mxCell id="-Rk6XNzhgcBps47neuGn-75" value="Smith" style="html=1;fillColor=none;strokeColor=none;fontSize=11;align=left;fontColor=#596780;whiteSpace=wrap;sketch=1;hachureGap=4;pointerEvents=0;fontFamily=Architects Daughter;fontSource=https%3A%2F%2Ffonts.googleapis.com%2Fcss%3Ffamily%3DArchitects%2BDaughter;" vertex="1" parent="-Rk6XNzhgcBps47neuGn-1">
          <mxGeometry x="240" y="179.69000000000005" width="30" height="22.39" as="geometry" />
        </mxCell>
        <mxCell id="-Rk6XNzhgcBps47neuGn-77" value="Smith" style="html=1;fillColor=none;strokeColor=none;fontSize=11;align=left;fontColor=#596780;whiteSpace=wrap;sketch=1;hachureGap=4;pointerEvents=0;fontFamily=Architects Daughter;fontSource=https%3A%2F%2Ffonts.googleapis.com%2Fcss%3Ffamily%3DArchitects%2BDaughter;" vertex="1" parent="-Rk6XNzhgcBps47neuGn-1">
          <mxGeometry x="240" y="212.20000000000005" width="30" height="22.39" as="geometry" />
        </mxCell>
        <mxCell id="-Rk6XNzhgcBps47neuGn-76" value="Smith" style="html=1;fillColor=none;strokeColor=none;fontSize=11;align=left;fontColor=#596780;whiteSpace=wrap;sketch=1;hachureGap=4;pointerEvents=0;fontFamily=Architects Daughter;fontSource=https%3A%2F%2Ffonts.googleapis.com%2Fcss%3Ffamily%3DArchitects%2BDaughter;" vertex="1" parent="-Rk6XNzhgcBps47neuGn-1">
          <mxGeometry x="240" y="247.45000000000005" width="30" height="22.39" as="geometry" />
        </mxCell>
        <mxCell id="-Rk6XNzhgcBps47neuGn-100" value="i" style="shape=ellipse;fillColor=#FF5630;strokeColor=none;fontColor=#ffffff;align=center;verticalAlign=middle;whiteSpace=wrap;fontSize=10;fontStyle=1;html=1;sketch=0;" vertex="1" parent="-Rk6XNzhgcBps47neuGn-1">
          <mxGeometry x="810" y="144.28" width="16" height="16" as="geometry" />
        </mxCell>
        <mxCell id="-Rk6XNzhgcBps47neuGn-101" value="i" style="shape=ellipse;fillColor=#FF5630;strokeColor=none;fontColor=#ffffff;align=center;verticalAlign=middle;whiteSpace=wrap;fontSize=10;fontStyle=1;html=1;sketch=0;" vertex="1" parent="-Rk6XNzhgcBps47neuGn-1">
          <mxGeometry x="810" y="182.88" width="16" height="16" as="geometry" />
        </mxCell>
        <mxCell id="-Rk6XNzhgcBps47neuGn-102" value="i" style="shape=ellipse;fillColor=#FF5630;strokeColor=none;fontColor=#ffffff;align=center;verticalAlign=middle;whiteSpace=wrap;fontSize=10;fontStyle=1;html=1;sketch=0;" vertex="1" parent="-Rk6XNzhgcBps47neuGn-1">
          <mxGeometry x="810" y="221.91000000000003" width="16" height="16" as="geometry" />
        </mxCell>
        <mxCell id="-Rk6XNzhgcBps47neuGn-103" value="i" style="shape=ellipse;fillColor=#60a917;strokeColor=#2D7600;fontColor=#ffffff;align=center;verticalAlign=middle;whiteSpace=wrap;fontSize=10;fontStyle=1;html=1;sketch=0;" vertex="1" parent="-Rk6XNzhgcBps47neuGn-1">
          <mxGeometry x="810" y="250.64" width="16" height="16" as="geometry" />
        </mxCell>
        <mxCell id="-Rk6XNzhgcBps47neuGn-81" value="Search By ID" style="html=1;shadow=0;dashed=0;shape=mxgraph.bootstrap.rrect;rSize=5;strokeColor=#CED4DA;html=1;whiteSpace=wrap;fillColor=#FFFFFF;fontColor=#7D868C;align=left;spacingLeft=0;spacing=15;fontSize=14;sketch=0;" vertex="1" parent="1">
          <mxGeometry x="-395" y="20" width="280" height="40" as="geometry" />
        </mxCell>
        <mxCell id="-Rk6XNzhgcBps47neuGn-82" value="Button" style="html=1;shadow=0;dashed=0;shape=mxgraph.bootstrap.rightButton;strokeColor=#6C757D;gradientColor=inherit;fontColor=inherit;fillColor=inherit;rSize=5;perimeter=none;whiteSpace=wrap;resizeHeight=1;fontSize=14;sketch=0;" vertex="1" parent="-Rk6XNzhgcBps47neuGn-81">
          <mxGeometry x="1" width="70" height="40" relative="1" as="geometry">
            <mxPoint x="-70" as="offset" />
          </mxGeometry>
        </mxCell>
        <mxCell id="-Rk6XNzhgcBps47neuGn-83" value="Search By ShiftID" style="html=1;shadow=0;dashed=0;shape=mxgraph.bootstrap.rrect;rSize=5;strokeColor=#CED4DA;html=1;whiteSpace=wrap;fillColor=#FFFFFF;fontColor=#7D868C;align=left;spacingLeft=0;spacing=15;fontSize=14;sketch=0;" vertex="1" parent="1">
          <mxGeometry x="-95" y="20" width="260" height="40" as="geometry" />
        </mxCell>
        <mxCell id="-Rk6XNzhgcBps47neuGn-84" value="Button" style="html=1;shadow=0;dashed=0;shape=mxgraph.bootstrap.rightButton;strokeColor=#6C757D;gradientColor=inherit;fontColor=inherit;fillColor=inherit;rSize=5;perimeter=none;whiteSpace=wrap;resizeHeight=1;fontSize=14;sketch=0;" vertex="1" parent="-Rk6XNzhgcBps47neuGn-83">
          <mxGeometry x="1" width="70" height="40" relative="1" as="geometry">
            <mxPoint x="-70" as="offset" />
          </mxGeometry>
        </mxCell>
        <mxCell id="-Rk6XNzhgcBps47neuGn-85" value="Search By Careworker ID" style="html=1;shadow=0;dashed=0;shape=mxgraph.bootstrap.rrect;rSize=5;strokeColor=#CED4DA;html=1;whiteSpace=wrap;fillColor=#FFFFFF;fontColor=#7D868C;align=left;spacingLeft=0;spacing=15;fontSize=14;sketch=0;" vertex="1" parent="1">
          <mxGeometry x="185" y="20" width="290" height="40" as="geometry" />
        </mxCell>
        <mxCell id="-Rk6XNzhgcBps47neuGn-86" value="Button" style="html=1;shadow=0;dashed=0;shape=mxgraph.bootstrap.rightButton;strokeColor=#6C757D;gradientColor=inherit;fontColor=inherit;fillColor=inherit;rSize=5;perimeter=none;whiteSpace=wrap;resizeHeight=1;fontSize=14;sketch=0;" vertex="1" parent="-Rk6XNzhgcBps47neuGn-85">
          <mxGeometry x="1" width="70" height="40" relative="1" as="geometry">
            <mxPoint x="-70" as="offset" />
          </mxGeometry>
        </mxCell>
        <mxCell id="-Rk6XNzhgcBps47neuGn-93" value="" style="html=1;shadow=0;dashed=0;shape=mxgraph.bootstrap.rrect;rSize=5;strokeColor=#DEE2E6;html=1;whiteSpace=wrap;fillColor=#ffffff;fontColor=#0085FC;sketch=0;" vertex="1" parent="1">
          <mxGeometry x="-395" y="400" width="150" height="30" as="geometry" />
        </mxCell>
        <mxCell id="-Rk6XNzhgcBps47neuGn-94" value="&lt;&lt;" style="strokeColor=inherit;fillColor=inherit;gradientColor=inherit;fontColor=inherit;html=1;shadow=0;dashed=0;shape=mxgraph.bootstrap.leftButton;rSize=5;perimeter=none;whiteSpace=wrap;resizeHeight=1;fontSize=14;sketch=0;" vertex="1" parent="-Rk6XNzhgcBps47neuGn-93">
          <mxGeometry width="30" height="30" relative="1" as="geometry" />
        </mxCell>
        <mxCell id="-Rk6XNzhgcBps47neuGn-95" value="1" style="strokeColor=inherit;fillColor=inherit;gradientColor=inherit;fontColor=inherit;html=1;shadow=0;dashed=0;perimeter=none;whiteSpace=wrap;resizeHeight=1;fontSize=14;sketch=0;" vertex="1" parent="-Rk6XNzhgcBps47neuGn-93">
          <mxGeometry width="30" height="30" relative="1" as="geometry">
            <mxPoint x="30" as="offset" />
          </mxGeometry>
        </mxCell>
        <mxCell id="-Rk6XNzhgcBps47neuGn-96" value="2" style="strokeColor=inherit;fillColor=inherit;gradientColor=inherit;fontColor=inherit;html=1;shadow=0;dashed=0;perimeter=none;whiteSpace=wrap;resizeHeight=1;fontSize=14;sketch=0;" vertex="1" parent="-Rk6XNzhgcBps47neuGn-93">
          <mxGeometry width="30" height="30" relative="1" as="geometry">
            <mxPoint x="60" as="offset" />
          </mxGeometry>
        </mxCell>
        <mxCell id="-Rk6XNzhgcBps47neuGn-97" value="3" style="strokeColor=inherit;fillColor=inherit;gradientColor=inherit;fontColor=inherit;html=1;shadow=0;dashed=0;perimeter=none;whiteSpace=wrap;resizeHeight=1;fontSize=14;sketch=0;" vertex="1" parent="-Rk6XNzhgcBps47neuGn-93">
          <mxGeometry width="30" height="30" relative="1" as="geometry">
            <mxPoint x="90" as="offset" />
          </mxGeometry>
        </mxCell>
        <mxCell id="-Rk6XNzhgcBps47neuGn-98" value="&gt;&gt;" style="strokeColor=inherit;fillColor=inherit;gradientColor=inherit;fontColor=inherit;html=1;shadow=0;dashed=0;shape=mxgraph.bootstrap.rightButton;rSize=5;perimeter=none;whiteSpace=wrap;resizeHeight=1;fontSize=14;sketch=0;" vertex="1" parent="-Rk6XNzhgcBps47neuGn-93">
          <mxGeometry x="1" width="30" height="30" relative="1" as="geometry">
            <mxPoint x="-30" as="offset" />
          </mxGeometry>
        </mxCell>
        <mxCell id="-Rk6XNzhgcBps47neuGn-99" value="" style="html=1;shadow=0;dashed=0;shape=mxgraph.bootstrap.rrect;rSize=5;strokeColor=#D6D8DB;strokeWidth=1;fillColor=#E2E3E5;fontColor=#383D41;whiteSpace=wrap;align=left;verticalAlign=middle;spacingLeft=10;sketch=0;" vertex="1" parent="1">
          <mxGeometry x="-400" y="-110" width="870" height="40" as="geometry" />
        </mxCell>
        <mxCell id="-Rk6XNzhgcBps47neuGn-104" value="&lt;h1&gt;Shift Verification&lt;/h1&gt;&lt;p&gt;Lorem ipsum dolor sit amet, consectetur adipisicing elit, sed do eiusmod tempor incididunt ut labore et dolore magna aliqua.&lt;/p&gt;" style="text;html=1;strokeColor=none;fillColor=none;spacing=5;spacingTop=-20;whiteSpace=wrap;overflow=hidden;rounded=0;sketch=0;" vertex="1" parent="1">
          <mxGeometry x="-385" y="-110" width="300" height="120" as="geometry" />
        </mxCell>
        <mxCell id="2Wqo7uv_Bq4cK9ST5wUq-1" value="" style="whiteSpace=wrap;html=1;fontSize=18;strokeColor=#000000;fillColor=none;" vertex="1" parent="1">
          <mxGeometry x="-440" y="-220" width="950" height="700" as="geometry" />
        </mxCell>
        <mxCell id="2Wqo7uv_Bq4cK9ST5wUq-66" value="" style="whiteSpace=wrap;html=1;fontSize=18;strokeColor=#000000;" vertex="1" parent="1">
          <mxGeometry x="-580" y="-220" width="140" height="700" as="geometry" />
        </mxCell>
        <mxCell id="2Wqo7uv_Bq4cK9ST5wUq-67" value="" style="whiteSpace=wrap;html=1;fontSize=18;strokeColor=#000000;" vertex="1" parent="1">
          <mxGeometry x="-440" y="-220" width="950" height="60" as="geometry" />
        </mxCell>
      </root>
    </mxGraphModel>
  </diagram>
</mxfile>
